<svg width="172" height="172" viewBox="0 0 172 172" fill="none" xmlns="http://www.w3.org/2000/svg">
<path d="M84.5011 0.00503843H87.6485L87.7324 0.0167948C89.4774 0.253601 91.2913 0.22505 93.0497 0.367805C96.4439 0.668431 99.8146 1.13533 103.162 1.76849C103.793 1.89445 104.425 2.02881 105.053 2.16988C105.683 2.31096 106.309 2.45875 106.936 2.61494C107.56 2.76946 108.185 2.93236 108.807 3.10199C109.428 3.27162 110.049 3.44796 110.667 3.63103C111.285 3.81409 111.902 4.00387 112.515 4.20205C113.128 4.39855 113.739 4.60344 114.349 4.81506C114.958 5.02667 115.565 5.24332 116.169 5.46837C116.774 5.69342 117.375 5.92519 117.973 6.16367C118.573 6.40216 119.169 6.64736 119.762 6.89929C120.355 7.15121 120.946 7.40985 121.534 7.6752C122.121 7.94056 122.706 8.21264 123.287 8.49143C123.868 8.77022 124.446 9.05573 125.022 9.34628C125.596 9.63851 126.169 9.93578 126.737 10.2398C127.304 10.5437 127.87 10.8545 128.431 11.1719C128.992 11.4893 129.55 11.8134 130.104 12.1426C130.658 12.4718 131.207 12.8094 131.755 13.1503C132.301 13.4929 132.843 13.8406 133.382 14.1949C133.92 14.5493 134.455 14.9104 134.984 15.2765C135.515 15.6426 136.041 16.0155 136.563 16.395C137.086 16.7729 137.603 17.1575 138.115 17.5488C138.627 17.9385 139.136 18.3348 139.64 18.7362C140.144 19.1376 140.644 19.5457 141.138 19.9589C141.634 20.372 142.122 20.7902 142.608 21.2151C143.093 21.64 143.573 22.0683 144.049 22.5033C144.524 22.9383 144.996 23.3783 145.461 23.825C145.926 24.2701 146.388 24.7219 146.843 25.177C147.298 25.6338 147.749 26.094 148.194 26.5609C148.639 27.0278 149.079 27.4981 149.514 27.975C149.949 28.452 150.377 28.9323 150.8 29.4177C151.223 29.9031 151.642 30.3951 152.055 30.8889C152.468 31.3844 152.874 31.8848 153.276 32.3887C153.677 32.8925 154.072 33.4031 154.461 33.9153C162.807 44.7647 168.819 58.8807 170.808 72.4274C171.167 74.8828 171.506 77.365 171.666 79.8423C171.735 81.0229 171.797 82.2036 171.854 83.3843C171.883 83.9553 171.859 84.6086 171.982 85.1645V87.7509L171.97 87.8332C171.859 88.6175 171.876 89.4338 171.831 90.2248C171.74 91.6003 171.637 92.9741 171.523 94.3479C171.243 97.6901 170.704 101.084 170.037 104.371C166.031 124.149 154.24 142.238 138.244 154.433C127.625 162.53 114.649 168.419 101.445 170.621C99.0303 171.023 96.595 171.402 94.1564 171.611C92.8649 171.721 90.2701 171.72 89.16 171.98H82.6588C81.3656 171.804 80.0169 171.802 78.7137 171.698C76.3389 171.508 73.9742 171.229 71.6196 170.86C59.3342 168.92 46.6625 163.73 36.5437 156.517C36.0096 156.143 35.4789 155.761 34.9532 155.373C34.4276 154.985 33.9053 154.592 33.388 154.193C32.8707 153.793 32.3585 153.388 31.8513 152.978C31.3441 152.567 30.8402 152.15 30.3414 151.729C29.8426 151.306 29.3488 150.879 28.8618 150.446C28.3731 150.012 27.8894 149.572 27.4107 149.129C26.9321 148.684 26.4585 148.234 25.9899 147.779C25.5213 147.324 25.0578 146.862 24.601 146.397C24.1425 145.931 23.6907 145.459 23.2439 144.982C22.7972 144.505 22.3555 144.025 21.9188 143.538C21.4822 143.051 21.0522 142.561 20.6273 142.063C20.2024 141.568 19.7842 141.066 19.3694 140.56C18.9562 140.055 18.5481 139.544 18.1467 139.029C17.7453 138.513 17.349 137.994 16.9593 137.47C16.5697 136.946 16.1851 136.417 15.8072 135.885C15.4293 135.352 15.0582 134.815 14.6921 134.274C14.3259 133.733 13.9665 133.187 13.6138 132.638C13.2611 132.089 12.9135 131.535 12.5726 130.977C12.2316 130.42 11.8974 129.859 11.5699 129.293C11.2424 128.728 10.9216 128.159 10.6059 127.586C10.2918 127.014 9.9828 126.438 9.6805 125.858C9.37819 125.279 9.08428 124.696 8.79541 124.11C8.50654 123.524 8.22607 122.934 7.95064 122.341C7.6752 121.749 7.40817 121.154 7.14617 120.554C6.88417 119.957 6.63057 119.354 6.38201 118.751C6.13512 118.146 5.89328 117.54 5.65983 116.928C5.42639 116.319 5.19966 115.706 4.97965 115.091C4.75963 114.476 4.54634 113.858 4.34144 113.239C4.13655 112.619 3.93669 111.996 3.74523 111.371C3.55377 110.746 3.36903 110.12 3.19268 109.492C3.01466 108.864 2.84503 108.232 2.68212 107.601C2.51921 106.967 2.36302 106.334 2.21523 105.698C1.52496 102.658 0.982493 99.5929 0.584458 96.501C0.372844 94.7308 0.3191 92.9153 0.0167948 91.1586L0 91.0645V82.8267C0.337575 81.2295 0.25696 79.3032 0.398036 77.659C0.606291 75.2237 1.00936 72.8053 1.41916 70.3969C3.715 56.9191 9.79974 43.5606 18.3298 32.8892C18.7312 32.3786 19.1376 31.8731 19.5508 31.3709C19.9639 30.8704 20.3821 30.3733 20.8053 29.8812C21.2286 29.3891 21.6585 28.9021 22.0935 28.4201C22.5285 27.9381 22.9685 27.4611 23.4152 26.9892C23.862 26.5172 24.3121 26.0503 24.7689 25.5885C25.2257 25.1266 25.6876 24.6698 26.1545 24.2197C26.6214 23.7679 27.0933 23.3229 27.5703 22.8829C28.0472 22.4428 28.5293 22.0078 29.0163 21.5779C29.5033 21.148 29.9954 20.7247 30.4926 20.3065C30.9897 19.8883 31.4902 19.4752 31.9974 19.0688C32.5029 18.6623 33.0135 18.2609 33.5291 17.8663C34.0447 17.4716 34.5636 17.0819 35.0876 16.699C35.6116 16.3161 36.1406 15.9382 36.673 15.5671C37.2054 15.1959 37.7429 14.8314 38.2836 14.472C38.8244 14.1126 39.3703 13.7599 39.9195 13.414C40.4686 13.068 41.0212 12.7271 41.5788 12.3929C42.1347 12.0586 42.6956 11.7311 43.2599 11.4104C43.8242 11.0896 44.3919 10.7738 44.9629 10.4665C45.5339 10.1575 46.1083 9.85684 46.6877 9.56125C47.2655 9.26567 47.8466 8.9768 48.4327 8.69464C49.0172 8.41249 49.605 8.13706 50.1962 7.86834C50.7873 7.59963 51.3819 7.33763 51.9781 7.08235C52.5743 6.82707 53.1756 6.57851 53.7785 6.33666C54.3814 6.09482 54.986 5.86137 55.594 5.63296C56.202 5.40455 56.8133 5.18454 57.4263 4.97125C58.0393 4.75795 58.654 4.55138 59.2721 4.35152C59.8901 4.15166 60.5098 3.95852 61.1329 3.77378C61.7543 3.58736 62.3791 3.40934 63.0055 3.23803C63.632 3.06672 64.2601 2.90213 64.8899 2.74594C65.5197 2.58807 66.1512 2.4386 66.7844 2.29584C67.4175 2.15309 68.0524 2.01705 68.6889 1.88941C69.3254 1.76177 69.9636 1.64085 70.6018 1.52664C73.3158 1.02448 76.0937 0.572701 78.8463 0.347651C80.6954 0.196499 82.5832 0.22337 84.4205 0.0100769L84.5062 0L84.5011 0.00503843ZM83.831 3.65286C79.7482 3.84096 75.699 4.11136 71.6632 4.79322C71.1107 4.88727 70.5581 4.98636 70.0073 5.09049C69.4564 5.19462 68.9055 5.30546 68.358 5.42135C67.8088 5.53723 67.2613 5.65983 66.7155 5.78747C66.1697 5.91511 65.6238 6.04779 65.0814 6.18719C64.5372 6.32658 63.9964 6.47102 63.4556 6.62049C62.9148 6.76997 62.3757 6.92616 61.8383 7.08739C61.3009 7.24862 60.7651 7.41489 60.231 7.58787C59.697 7.75918 59.1646 7.9372 58.6355 8.12026C58.1048 8.30333 57.5775 8.49143 57.0501 8.68625C56.5244 8.88107 55.9988 9.07924 55.4781 9.28414C54.9558 9.48904 54.4352 9.69897 53.9179 9.91562C53.4006 10.1306 52.885 10.3523 52.3711 10.579C51.8572 10.8057 51.3466 11.0375 50.8377 11.2743C50.3288 11.5111 49.8233 11.753 49.3195 12.0015C48.8156 12.2484 48.3152 12.502 47.8164 12.759C47.3176 13.0159 46.8221 13.2796 46.33 13.5483C45.8379 13.817 45.3475 14.0891 44.8605 14.3679C44.3734 14.6467 43.8897 14.9289 43.4077 15.2177C42.9257 15.5066 42.4487 15.7988 41.9735 16.0978C41.4982 16.395 41.0262 16.699 40.5577 17.0064C40.0891 17.3137 39.6222 17.6261 39.1603 17.9435C38.6985 18.2609 38.2383 18.5834 37.7832 18.9092C37.328 19.2367 36.8746 19.5676 36.4261 19.9035C35.9777 20.2394 35.531 20.5803 35.0893 20.9263C34.6476 21.2722 34.2092 21.6216 33.7743 21.9759C33.3393 22.3303 32.9093 22.6897 32.4811 23.0525C32.0545 23.4152 31.6296 23.7831 31.2097 24.1559C30.7898 24.5287 30.375 24.9049 29.9618 25.2862C29.5487 25.6674 29.1423 26.052 28.7375 26.4417C28.3328 26.8313 27.933 27.2243 27.5384 27.6223C27.142 28.0204 26.7507 28.4218 26.3627 28.8265C25.9748 29.2313 25.5918 29.6411 25.2123 30.0559C14.163 42.1783 7.29564 55.8711 4.5413 72.0377C4.2877 73.4451 4.07441 74.8593 3.89974 76.2784C3.72508 77.6976 3.59072 79.1218 3.49499 80.5493C3.39926 81.9769 3.34384 83.4061 3.32704 84.8354C3.31025 86.2663 3.33376 87.6955 3.39758 89.1247C3.52354 91.8169 3.65454 94.5528 4.01227 97.2248C4.09288 97.8244 4.18021 98.424 4.27259 99.0219C4.36664 99.6198 4.46573 100.216 4.57321 100.812C4.6807 101.408 4.79322 102.003 4.91247 102.596C5.03171 103.189 5.15935 103.782 5.29203 104.371C5.42471 104.962 5.5641 105.55 5.71022 106.138C5.85633 106.726 6.00916 107.31 6.16703 107.895C6.32658 108.479 6.49117 109.06 6.66248 109.641C6.83379 110.222 7.01181 110.8 7.19655 111.376C7.3813 111.952 7.57108 112.527 7.76925 113.099C7.96743 113.672 8.17065 114.241 8.3789 114.809C8.58884 115.377 8.80381 115.943 9.02718 116.505C9.24887 117.068 9.47728 117.629 9.71241 118.186C9.94753 118.744 10.1877 119.3 10.4346 119.852C10.6815 120.405 10.9351 120.954 11.1937 121.502C11.4523 122.049 11.7177 122.593 11.9881 123.134C12.2585 123.675 12.5356 124.214 12.8194 124.748C13.1016 125.284 13.3905 125.815 13.686 126.344C13.98 126.873 14.2806 127.398 14.5879 127.919C14.8936 128.441 15.206 128.96 15.5234 129.474C15.8408 129.99 16.165 130.5 16.4941 131.009C16.8233 131.516 17.1575 132.022 17.4985 132.522C17.8394 133.023 18.1837 133.52 18.5347 134.012C18.8857 134.506 19.2418 134.995 19.6045 135.478C19.9656 135.964 20.3334 136.444 20.7063 136.921C21.0791 137.398 21.457 137.87 21.8399 138.34C22.2228 138.809 22.6108 139.272 23.0038 139.732C23.3968 140.193 23.7948 140.648 24.1979 141.099C24.601 141.551 25.0091 141.998 25.4222 142.44C25.8354 142.881 26.2536 143.32 26.6751 143.753C27.0983 144.186 27.5249 144.615 27.9582 145.038C28.3899 145.461 28.8265 145.881 29.2682 146.294C29.7099 146.707 30.155 147.117 30.6068 147.522C31.0921 147.958 31.5825 148.388 32.078 148.813C32.5734 149.238 33.0739 149.656 33.5794 150.07C34.085 150.483 34.5955 150.889 35.1094 151.289C35.625 151.69 36.144 152.083 36.668 152.473C37.192 152.861 37.721 153.244 38.2551 153.618C38.7892 153.994 39.3266 154.364 39.8691 154.727C40.4115 155.089 40.9574 155.446 41.5082 155.797C42.0591 156.146 42.6133 156.49 43.1726 156.826C43.7319 157.162 44.2945 157.493 44.8605 157.815C45.4265 158.139 45.9975 158.455 46.5719 158.764C47.1462 159.073 47.724 159.377 48.3051 159.673C48.8862 159.968 49.4723 160.257 50.0601 160.539C50.6479 160.822 51.2408 161.097 51.8353 161.364C52.4299 161.633 53.0278 161.893 53.629 162.147C54.2303 162.4 54.8349 162.647 55.4412 162.887C56.0475 163.127 56.6571 163.359 57.2701 163.584C57.8831 163.809 58.4978 164.028 59.1159 164.238C59.7339 164.448 60.3536 164.651 60.9767 164.846C61.5998 165.04 62.2246 165.228 62.851 165.41C63.4775 165.591 64.1073 165.764 64.7387 165.929C65.3702 166.095 66.0034 166.253 66.6382 166.404C67.2731 166.555 67.9096 166.698 68.5478 166.834C69.186 166.97 69.8259 167.098 70.4674 167.219C71.109 167.34 71.7506 167.452 72.3955 167.556C73.0387 167.662 73.6853 167.759 74.3302 167.848C74.9768 167.939 75.6234 168.02 76.2717 168.094C76.92 168.169 77.5683 168.235 78.2182 168.294C78.8682 168.352 79.5181 168.404 80.1698 168.448C80.8214 168.492 81.4714 168.527 82.1247 168.556C82.7763 168.584 83.4296 168.604 84.0813 168.616C84.7329 168.628 85.3862 168.633 86.0378 168.629C86.6912 168.628 87.3428 168.616 87.9944 168.598C88.678 168.582 89.3615 168.561 90.0451 168.529C90.7286 168.497 91.4105 168.456 92.094 168.408C92.7759 168.359 93.4578 168.302 94.138 168.236C94.8181 168.171 95.4983 168.097 96.1785 168.015C96.857 167.932 97.5355 167.842 98.2124 167.743C98.8892 167.644 99.5643 167.536 100.239 167.419C100.913 167.303 101.586 167.178 102.257 167.044C102.927 166.911 103.597 166.77 104.264 166.619C104.93 166.47 105.597 166.312 106.26 166.145C106.924 165.979 107.586 165.805 108.244 165.621C108.904 165.438 109.561 165.249 110.214 165.049C110.869 164.849 111.521 164.642 112.169 164.427C112.819 164.212 113.465 163.989 114.109 163.757C114.752 163.526 115.393 163.287 116.03 163.038C116.668 162.792 117.303 162.536 117.933 162.273C118.564 162.009 119.192 161.739 119.817 161.46C120.442 161.181 121.063 160.894 121.68 160.6C122.298 160.306 122.911 160.004 123.52 159.695C124.13 159.386 124.736 159.068 125.338 158.742C125.939 158.418 126.537 158.086 127.131 157.745C127.724 157.405 128.314 157.058 128.9 156.703C129.484 156.349 130.065 155.988 130.641 155.619C131.217 155.249 131.788 154.875 132.356 154.49C132.922 154.107 133.485 153.717 134.042 153.319C134.6 152.923 135.151 152.518 135.698 152.107C136.246 151.695 136.787 151.279 137.324 150.854C137.86 150.429 138.392 149.999 138.918 149.561C139.443 149.122 139.964 148.679 140.478 148.229C140.992 147.779 141.503 147.322 142.005 146.858C142.509 146.395 143.006 145.926 143.498 145.449C143.99 144.974 144.475 144.492 144.954 144.005C145.434 143.518 145.906 143.024 146.375 142.524C146.726 142.151 147.072 141.775 147.414 141.397C147.757 141.017 148.098 140.636 148.434 140.25C148.77 139.865 149.102 139.475 149.431 139.084C149.761 138.693 150.085 138.298 150.405 137.9C150.726 137.502 151.044 137.102 151.358 136.698C151.672 136.294 151.981 135.886 152.288 135.478C152.594 135.068 152.896 134.657 153.195 134.24C153.494 133.826 153.788 133.407 154.078 132.986C154.369 132.564 154.655 132.141 154.938 131.716C155.22 131.29 155.499 130.861 155.773 130.43C156.047 129.998 156.317 129.565 156.584 129.128C156.851 128.692 157.113 128.253 157.37 127.811C157.629 127.37 157.882 126.926 158.131 126.48C158.381 126.033 158.626 125.584 158.867 125.134C159.108 124.684 159.345 124.231 159.577 123.776C159.811 123.321 160.039 122.864 160.262 122.404C160.486 121.943 160.706 121.482 160.921 121.018C161.136 120.554 161.347 120.089 161.554 119.621C161.76 119.154 161.962 118.684 162.16 118.212C162.358 117.74 162.551 117.266 162.74 116.791C162.928 116.315 163.112 115.838 163.292 115.36C163.472 114.881 163.648 114.401 163.818 113.919C163.989 113.437 164.155 112.953 164.317 112.468C164.478 111.982 164.636 111.497 164.788 111.008C164.941 110.52 165.089 110.031 165.232 109.54C165.375 109.05 165.514 108.558 165.648 108.064C165.783 107.57 165.912 107.077 166.036 106.581C166.161 106.086 166.282 105.589 166.397 105.09C166.513 104.591 166.624 104.092 166.73 103.592C166.836 103.091 166.938 102.591 167.034 102.089C167.131 101.586 167.222 101.084 167.309 100.58C167.397 100.077 167.479 99.5728 167.556 99.0672C168.359 93.6358 168.52 88.1204 168.386 82.6386C168.361 81.8778 168.325 81.1153 168.278 80.3562C168.233 79.5954 168.176 78.8363 168.107 78.0771C168.038 77.318 167.959 76.5606 167.87 75.8031C167.781 75.0457 167.681 74.2916 167.57 73.5375C167.459 72.7834 167.338 72.031 167.205 71.282C167.073 70.5329 166.93 69.7839 166.777 69.0365C166.624 68.2908 166.46 67.5468 166.287 66.8045C166.112 66.0622 165.927 65.3232 165.732 64.5876C165.538 63.852 165.333 63.1181 165.116 62.3875C164.899 61.6569 164.674 60.9297 164.437 60.2058C164.201 59.482 163.954 58.7615 163.698 58.0427C163.442 57.3255 163.174 56.6118 162.897 55.9013C162.62 55.1909 162.333 54.4855 162.037 53.7835C161.74 53.0815 161.435 52.3845 161.117 51.6909C160.801 50.9973 160.474 50.3087 160.138 49.6251C159.802 48.9416 159.456 48.2631 159.102 47.5879C158.195 45.8648 157.169 44.1988 156.154 42.5378C152.705 36.8897 148.565 31.5221 143.766 26.9438C139.944 23.296 135.928 19.9287 131.516 17.0064C131.08 16.7225 130.64 16.4421 130.196 16.165C129.755 15.8895 129.308 15.6174 128.861 15.3487C128.413 15.0817 127.963 14.818 127.511 14.5577C127.057 14.2991 126.602 14.0438 126.145 13.7935C125.689 13.5433 125.228 13.2964 124.767 13.0546C124.305 12.8127 123.839 12.5742 123.374 12.3425C122.907 12.109 122.439 11.8806 121.969 11.6556C121.498 11.4305 121.025 11.2122 120.549 10.9955C120.074 10.7806 119.597 10.5689 119.118 10.3624C118.64 10.1558 118.158 9.95425 117.676 9.75775C117.192 9.56125 116.708 9.36811 116.221 9.18001C115.734 8.99191 115.247 8.80885 114.757 8.62915C114.266 8.44944 113.774 8.27646 113.282 8.10683C112.789 7.9372 112.295 7.77261 111.798 7.61138C111.301 7.45183 110.803 7.29564 110.305 7.14449C109.806 6.99334 109.304 6.84722 108.801 6.70615C108.299 6.56507 107.795 6.42735 107.292 6.29635C106.786 6.16535 106.281 6.03771 105.773 5.91511C105.266 5.79251 104.757 5.67495 104.248 5.56242C103.74 5.4499 103.229 5.34241 102.717 5.23828C102.206 5.13584 101.692 5.03675 101.18 4.94438C100.666 4.85033 100.152 4.76299 99.6382 4.67902C99.1226 4.59505 98.607 4.51611 98.0915 4.44221C97.5759 4.36832 97.0586 4.29946 96.5396 4.23564C96.0223 4.17182 95.5034 4.11304 94.9844 4.05761C94.4655 4.00387 93.9465 3.95349 93.4259 3.90982C92.9069 3.86447 92.3863 3.82585 91.8656 3.79058C91.345 3.75531 90.8244 3.72676 90.3037 3.70156C89.7831 3.67637 89.2608 3.65622 88.7401 3.6411C88.2178 3.62599 87.6972 3.61591 87.1749 3.61087C86.6525 3.60583 86.1319 3.60583 85.6096 3.61087C85.0873 3.61591 84.5666 3.62599 84.0443 3.63942C83.9704 3.6411 83.8948 3.64446 83.8209 3.64782L83.831 3.65286Z" fill="#235735"/>
<path d="M89.4926 166.285L89.3717 166.293C84.303 166.633 79.0681 166.261 74.0532 165.496C73.5846 165.427 73.1143 165.354 72.6475 165.277C72.1789 165.2 71.712 165.119 71.2451 165.034C70.7782 164.948 70.313 164.859 69.8478 164.765C69.3826 164.671 68.919 164.574 68.4555 164.471C67.9919 164.369 67.5301 164.263 67.0682 164.154C66.6064 164.043 66.1462 163.929 65.6877 163.811C65.2292 163.693 64.7707 163.571 64.3139 163.443C63.8571 163.317 63.4003 163.186 62.9451 163.052C62.49 162.918 62.0365 162.778 61.5847 162.635C61.133 162.493 60.6812 162.347 60.2311 162.195C59.781 162.044 59.3326 161.89 58.8858 161.732C58.4391 161.574 57.994 161.411 57.549 161.243C57.1056 161.077 56.6622 160.906 56.2205 160.731C55.7788 160.556 55.3405 160.378 54.9021 160.195C54.4638 160.012 54.0288 159.827 53.5938 159.636C53.1588 159.446 52.7255 159.251 52.2956 159.055C51.8639 158.857 51.4357 158.655 51.0074 158.45C50.5791 158.245 50.1542 158.035 49.731 157.822C49.3078 157.609 48.8845 157.392 48.4647 157.172C48.0448 156.952 47.6266 156.727 47.2101 156.499C46.7936 156.27 46.3805 156.038 45.969 155.803C45.5575 155.568 45.1477 155.33 44.7396 155.086C44.3315 154.844 43.9267 154.597 43.5237 154.347C43.1206 154.097 42.7192 153.843 42.3212 153.586C41.9231 153.329 41.5268 153.069 41.1321 152.805C40.7374 152.542 40.3461 152.275 39.9565 152.003C39.5668 151.731 39.1805 151.457 38.7959 151.18C38.4113 150.903 38.0301 150.62 37.6505 150.337C37.271 150.053 36.8948 149.764 36.5203 149.472C36.1457 149.181 35.7746 148.886 35.4051 148.588C35.0356 148.291 34.6695 147.989 34.3067 147.685C33.9423 147.381 33.5828 147.072 33.2234 146.761C32.723 146.328 32.2292 145.889 31.7405 145.444C31.2517 144.999 30.768 144.547 30.2911 144.091C29.8141 143.634 29.3422 143.17 28.8753 142.702C28.4084 142.233 27.9482 141.758 27.4947 141.279C27.0396 140.799 26.5929 140.313 26.1495 139.821C25.7061 139.329 25.2711 138.834 24.8412 138.33C24.4112 137.828 23.988 137.321 23.5715 136.807C23.155 136.294 22.7435 135.776 22.3388 135.253C21.934 134.731 21.536 134.202 21.1463 133.669C20.755 133.137 20.3704 132.598 19.9925 132.057C19.6146 131.515 19.2435 130.967 18.8807 130.416C18.5163 129.864 18.1602 129.308 17.8092 128.749C17.4582 128.188 17.1156 127.623 16.7797 127.054C16.4438 126.485 16.1146 125.912 15.7922 125.334C15.4697 124.757 15.1556 124.175 14.8483 123.591C14.541 123.006 14.2403 122.417 13.9481 121.824C13.6559 121.231 13.3704 120.635 13.0916 120.035C12.8128 119.436 12.5441 118.833 12.2804 118.227C12.0167 117.62 11.7614 117.011 11.5145 116.398C11.2677 115.785 11.0275 115.168 10.794 114.55C10.5623 113.932 10.3372 113.309 10.1206 112.686C9.90392 112.061 9.69399 111.435 9.49413 110.805C9.29259 110.175 9.09945 109.544 8.91471 108.909C8.72997 108.274 8.55194 107.638 8.38232 106.999C8.21269 106.361 8.05146 105.72 7.89695 105.076C7.74244 104.433 7.598 103.788 7.46028 103.142C7.32257 102.495 7.19325 101.847 7.07233 101.197C6.9514 100.547 6.8372 99.8952 6.73307 99.2436C6.62726 98.5903 6.53153 97.937 6.44252 97.282C6.35351 96.627 6.27289 95.9703 6.20068 95.3136C6.12846 94.6569 6.06296 93.9986 6.00754 93.3402C5.95211 92.6819 5.90341 92.0219 5.8631 91.3618C5.81776 90.7068 5.78081 90.0518 5.75226 89.3968C5.72371 88.7418 5.70355 88.0852 5.69012 87.4302C5.67836 86.7735 5.67332 86.1185 5.67668 85.4618C5.68004 84.8051 5.6918 84.1501 5.71195 83.4935C5.7321 82.8368 5.76065 82.1818 5.79592 81.5268C5.83119 80.8718 5.87654 80.2168 5.9286 79.5635C5.98067 78.9102 6.04113 78.2552 6.10999 77.6036C6.17884 76.9502 6.25442 76.2986 6.33839 75.6486C6.42237 74.9987 6.51474 74.3487 6.61551 73.7004C6.71628 73.0522 6.82376 72.4056 6.94133 71.759C7.05721 71.1141 7.18149 70.4691 7.31417 69.8259C7.44685 69.1827 7.58624 68.5428 7.73404 67.9029C7.88183 67.263 8.03802 66.6265 8.20093 65.9917C8.36384 65.3568 8.53683 64.7237 8.71485 64.0922C8.89456 63.4607 9.08098 62.8326 9.2758 62.2061C9.47062 61.5797 9.67383 60.9549 9.88377 60.3335C10.0937 59.7121 10.312 59.0924 10.5371 58.476C10.7621 57.8596 10.9956 57.2466 11.2357 56.6353C11.4759 56.0257 11.7245 55.4177 11.9798 54.8131C12.235 54.2085 12.4987 53.6072 12.7691 53.0093C13.0395 52.4114 13.3166 51.8169 13.6021 51.2257C13.8876 50.6345 14.1799 50.0467 14.4788 49.4639C14.7778 48.8795 15.0851 48.3001 15.3992 47.724C15.7132 47.1479 16.034 46.5752 16.3615 46.0076C16.689 45.4399 17.0249 44.8756 17.3658 44.3147C17.7084 43.7554 18.0561 43.1995 18.4121 42.6469C18.7682 42.0961 19.1293 41.5486 19.4988 41.0061C19.8682 40.4636 20.2428 39.9262 20.6257 39.3921C21.0086 38.858 21.3966 38.3307 21.7929 37.8067C22.1876 37.2827 22.5907 36.7637 22.9988 36.2498C23.4069 35.7359 23.8217 35.227 24.2416 34.7232C24.6615 34.2193 25.0897 33.7222 25.5214 33.2284C34.8324 22.6058 47.153 14.1345 60.6342 9.79136C67.7367 7.50392 75.081 6.32157 82.511 5.83284C82.5513 5.82948 82.5916 5.82444 82.6319 5.82108C85.4131 5.66657 88.2414 5.78749 91.0209 5.95208C91.5819 5.98399 92.1445 6.02262 92.7054 6.06797C93.2664 6.11163 93.8273 6.16202 94.3866 6.21912C94.9459 6.27622 95.5051 6.33836 96.0644 6.40554C96.6236 6.4744 97.1812 6.5483 97.7371 6.62723C98.2947 6.70785 98.8506 6.7935 99.4049 6.88419C99.9591 6.97488 100.513 7.07397 101.068 7.17642C101.62 7.28055 102.173 7.38971 102.723 7.50392C103.274 7.6198 103.824 7.74072 104.373 7.86668C104.92 7.99432 105.468 8.127 106.014 8.26472C106.559 8.40244 107.104 8.54687 107.644 8.69802C108.187 8.8475 108.728 9.00369 109.267 9.16492C109.806 9.32615 110.343 9.4941 110.879 9.66708C111.415 9.84007 111.949 10.0181 112.48 10.2028C113.012 10.3876 113.541 10.5774 114.068 10.7722C114.596 10.967 115.121 11.1685 115.645 11.3751C116.169 11.5817 116.69 11.7933 117.209 12.0116C117.728 12.23 118.244 12.4517 118.759 12.6817C119.273 12.9101 119.785 13.1436 120.294 13.3838C120.803 13.6239 121.31 13.8674 121.814 14.1177C122.318 14.3679 122.82 14.6232 123.317 14.8835C123.816 15.1439 124.311 15.4109 124.805 15.6813C125.297 15.9534 125.788 16.2288 126.275 16.5109C126.762 16.7931 127.246 17.0803 127.728 17.3708C128.208 17.6631 128.687 17.9603 129.16 18.2626C129.635 18.5649 130.106 18.8723 130.574 19.1847C131.043 19.4971 131.506 19.8145 131.968 20.1353C132.43 20.4577 132.887 20.7835 133.342 21.1161C133.797 21.4486 134.247 21.7845 134.694 22.1254C135.141 22.4664 135.586 22.8123 136.026 23.1633C136.466 23.5144 136.903 23.8687 137.334 24.2298C137.766 24.5892 138.196 24.9537 138.621 25.3232C139.046 25.6926 139.465 26.0655 139.884 26.4434C140.367 26.8834 140.844 27.3284 141.316 27.7785C141.788 28.2286 142.255 28.6855 142.717 29.149C143.179 29.6109 143.634 30.0794 144.084 30.553C144.534 31.0267 144.977 31.5053 145.416 31.989C145.854 32.4727 146.286 32.9631 146.712 33.4569C147.139 33.9506 147.559 34.4511 147.974 34.9549C148.388 35.4588 148.797 35.9693 149.198 36.4833C149.599 36.9972 149.996 37.5178 150.385 38.0418C150.775 38.5658 151.158 39.0949 151.534 39.6289C151.91 40.163 152.281 40.7004 152.644 41.2429C153.009 41.7854 153.365 42.3312 153.716 42.8821C154.067 43.4329 154.409 43.9888 154.747 44.5481C155.085 45.1074 155.414 45.67 155.738 46.2377C156.062 46.8053 156.378 47.3764 156.687 47.9507C156.996 48.5251 157.298 49.1045 157.594 49.6856C157.889 50.2684 158.178 50.8545 158.46 51.4424C158.742 52.0319 159.016 52.6247 159.283 53.2192C159.55 53.8155 159.811 54.4133 160.062 55.0163C160.314 55.6192 160.56 56.2238 160.798 56.8318C161.037 57.4398 161.267 58.0511 161.49 58.6641C161.713 59.2771 161.928 59.8935 162.138 60.5132C162.347 61.1329 162.548 61.7543 162.741 62.3774C162.934 63.0005 163.121 63.627 163.299 64.2551C163.477 64.8832 163.648 65.513 163.811 66.1462C163.974 66.7793 164.128 67.4125 164.276 68.049C164.424 68.6855 164.563 69.3221 164.696 69.9619C164.829 70.6018 164.953 71.2417 165.069 71.8849C165.185 72.5282 165.294 73.1714 165.395 73.8163C165.496 74.4613 165.59 75.1078 165.675 75.7544C165.761 76.401 165.838 77.051 165.909 77.6993C165.979 78.3476 166.04 78.9992 166.095 79.6492C166.149 80.3008 166.196 80.9507 166.233 81.6041C166.271 82.2641 166.3 82.9241 166.322 83.5842C166.344 84.2442 166.357 84.9042 166.362 85.5659C166.367 86.226 166.364 86.8877 166.354 87.5477C166.342 88.2078 166.324 88.8695 166.295 89.5295C166.268 90.1895 166.231 90.8496 166.188 91.5079C166.144 92.168 166.092 92.8263 166.031 93.483C165.971 94.1413 165.902 94.798 165.826 95.4547C165.749 96.1114 165.665 96.7664 165.573 97.4197C165.48 98.073 165.38 98.7263 165.271 99.3779C165.161 100.03 165.044 100.68 164.92 101.328C164.794 101.976 164.661 102.624 164.52 103.269C164.379 103.914 164.229 104.557 164.071 105.201C163.914 105.842 163.749 106.482 163.576 107.12C163.403 107.759 163.222 108.393 163.032 109.027C162.842 109.66 162.646 110.29 162.441 110.918C162.236 111.546 162.024 112.171 161.802 112.794C161.582 113.417 161.354 114.036 161.119 114.654C160.884 115.273 160.64 115.886 160.388 116.497C160.138 117.108 159.879 117.716 159.612 118.321C159.347 118.925 159.073 119.527 158.791 120.125C158.511 120.722 158.222 121.317 157.926 121.908C157.631 122.499 157.327 123.085 157.018 123.67C156.707 124.253 156.389 124.832 156.065 125.408C155.741 125.984 155.409 126.555 155.069 127.121C154.73 127.689 154.384 128.251 154.031 128.809C153.679 129.368 153.319 129.921 152.952 130.472C152.585 131.021 152.211 131.567 151.831 132.106C151.452 132.647 151.064 133.182 150.671 133.713C150.278 134.244 149.876 134.77 149.47 135.29C149.064 135.811 148.65 136.326 148.231 136.837C147.811 137.348 147.386 137.853 146.954 138.354C146.523 138.854 146.084 139.348 145.639 139.837C145.196 140.33 144.746 140.819 144.291 141.301C143.835 141.783 143.374 142.26 142.905 142.732C142.436 143.204 141.964 143.669 141.484 144.128C141.005 144.588 140.52 145.041 140.03 145.488C139.539 145.935 139.042 146.376 138.542 146.811C138.04 147.246 137.532 147.675 137.02 148.098C136.508 148.519 135.991 148.936 135.468 149.346C134.946 149.756 134.417 150.159 133.884 150.555C133.352 150.951 132.815 151.341 132.272 151.724C131.73 152.107 131.182 152.483 130.631 152.852C130.079 153.222 129.523 153.583 128.962 153.939C128.401 154.295 127.835 154.643 127.266 154.984C126.696 155.325 126.122 155.659 125.544 155.986C124.966 156.314 124.384 156.633 123.799 156.945C123.213 157.258 122.624 157.563 122.031 157.861C121.438 158.158 120.84 158.448 120.239 158.732C119.638 159.014 119.035 159.29 118.427 159.559C117.819 159.826 117.207 160.086 116.594 160.34C115.981 160.593 115.363 160.837 114.744 161.075C114.124 161.312 113.501 161.542 112.874 161.764C112.248 161.985 111.62 162.199 110.988 162.405C110.357 162.612 109.724 162.81 109.087 163C108.451 163.19 107.812 163.373 107.172 163.546C106.533 163.72 105.889 163.887 105.244 164.044C104.599 164.202 103.953 164.354 103.305 164.495C102.656 164.637 102.006 164.77 101.355 164.896C100.703 165.022 100.05 165.139 99.3948 165.249C98.7398 165.358 98.0831 165.46 97.4264 165.553C96.7698 165.645 96.1114 165.731 95.4514 165.808C94.7913 165.885 94.1313 165.954 93.4696 166.015C92.8079 166.075 92.1462 166.127 91.4845 166.171C90.8227 166.214 90.1593 166.25 89.496 166.278L89.4926 166.285ZM69.1508 25.209C69.5572 25.7968 69.8629 26.4887 70.187 27.1252C70.926 28.578 71.6163 30.0626 72.414 31.4835C73.2403 32.9547 74.1892 34.3419 75.1314 35.7409C76.8428 38.2786 78.6213 40.7458 80.6014 43.0836C80.6636 42.7611 80.7325 42.4387 80.7862 42.1145C79.7533 40.5107 78.5575 39.0176 77.5364 37.4053C75.5697 34.3016 73.8768 30.585 72.7667 27.0799C72.4829 26.1814 72.288 25.2425 72.0412 24.3323L72.1671 24.1727L72.0227 24.2634L72.0899 24.2752C72.372 24.8378 72.4862 25.4122 72.6978 25.9983C73.1227 27.1689 73.6316 28.3462 74.1506 29.4782C76.1576 33.8616 78.4181 37.3029 81.2044 41.1942L81.5285 40.4468C77.6221 34.9633 75.7881 29.6545 74.7972 23.0559C75.3077 24.5405 75.6285 26.0873 76.0803 27.5904C77.1065 31.0065 78.5223 34.1202 80.4049 37.1483C80.7408 37.6891 81.3623 38.8765 81.9148 39.1553C82.0324 39.026 82.0223 39.0848 82.0223 38.9319C82.0189 38.5473 80.4973 35.8568 80.2068 35.2438C78.3879 31.4012 76.7722 25.2745 77.3718 21.0304C77.5112 20.0362 77.8303 19.1276 78.2367 18.2156C78.3392 19.5525 78.3039 20.9045 78.4702 22.2346C79.0513 26.9103 80.9793 31.9 83.3004 35.9794C83.3591 35.7057 83.4482 35.4134 83.475 35.138C83.6363 34.7988 83.7941 34.4662 83.9235 34.1135C83.5422 32.6473 83.6363 31.1005 83.6447 29.5974C83.648 29.1557 83.7186 28.5897 83.601 28.1648C83.947 28.6636 83.8412 31.5775 83.9402 32.3887C83.9873 32.7716 84.1032 33.1142 84.2308 33.4753C84.78 31.821 85.9371 26.2771 87.0792 25.4155L87.2135 25.4592C87.5578 26.4753 86.965 28.9391 86.9062 30.1231C86.8373 31.4986 86.8592 32.9127 86.9196 34.2882C87.0893 38.0502 87.8669 41.7434 88.9854 45.3341C88.4916 46.2948 87.9004 47.1933 87.4503 48.1791C85.4652 52.5206 84.5902 57.4599 84.6456 62.2061C80.2756 65.6087 74.1707 72.6558 73.5006 78.2602C73.4452 78.7221 73.4502 79.1873 73.4519 79.6525C76.7823 76.3675 78.5945 73.9289 81.0717 69.967C86.3906 61.4638 88.7435 53.5619 89.5665 43.6194C89.7495 41.4041 89.9293 39.1855 89.9461 36.9619C89.9696 33.7071 89.9746 30.2944 88.9552 27.1672C88.5336 25.8723 87.9391 24.643 87.3664 23.4102C86.7567 22.1002 86.1756 20.7785 85.1461 19.7322C83.8579 18.4222 82.2322 17.653 80.4201 17.4061C79.9733 17.3456 79.5199 17.3876 79.0782 17.3137C78.5458 17.2247 78.0268 17.0265 77.4978 16.914C76.7269 16.7494 75.8603 16.7058 75.0709 16.7091C72.2964 16.7192 69.4934 17.6261 67.174 19.1292C66.3259 19.6801 65.5332 20.3855 64.6397 20.8557C63.8235 21.2874 62.9199 21.5964 62.0785 21.986C59.8314 23.029 57.7623 24.4162 56.0274 26.1914C55.6629 26.5609 55.3119 26.9422 54.9726 27.3335C54.6334 27.7265 54.3076 28.1279 53.9935 28.5427C53.6811 28.9559 53.3805 29.3791 53.095 29.8124C52.8095 30.2457 52.5374 30.6874 52.2805 31.1375C51.7581 32.0595 51.3248 33.0807 50.7219 33.9489C50.0367 34.9365 49.076 35.7191 48.2816 36.6176C46.5383 38.5927 45.0268 41.1035 44.0376 43.5387C43.4363 45.0217 42.9224 46.6071 42.5798 48.1724C42.3514 49.2137 42.301 50.307 41.9198 51.308C41.5318 52.3258 40.944 53.2847 40.4771 54.2706C39.2124 56.9342 38.4063 59.8851 38.4567 62.8477C38.4836 64.4197 38.7775 65.948 39.105 67.478C39.2494 68.1531 39.4677 68.877 39.5148 69.5622C39.5887 70.6455 39.2561 71.7791 39.2124 72.8691C39.0647 76.5522 40.2856 80.2 42.9728 82.7847C43.4162 83.2113 43.8932 83.6077 44.4205 83.9285C45.2115 86.3335 46.6055 88.3236 48.9114 89.4926C49.1281 89.6034 49.3498 89.7025 49.5765 89.7915C49.8032 89.8805 50.0333 89.9578 50.2668 90.025C50.5002 90.0921 50.737 90.1476 50.9755 90.1929C51.214 90.2382 51.4558 90.2702 51.6977 90.292C53.2881 90.4247 54.8853 90.0988 56.464 89.9494C58.78 89.7294 60.9869 89.8704 63.2474 89.1164C67.0817 87.8366 70.1417 82.9224 72.7969 80.0321C72.7314 77.1299 72.8288 74.4545 74.0297 71.7489C72.6038 72.4996 71.1729 73.2336 69.8595 74.1724C64.9269 77.6926 60.5267 83.7269 57.1644 88.715C57.2618 87.672 57.8496 86.404 58.2762 85.4534C60.1874 81.2043 62.8544 77.0325 66.4653 74.0263C67.4898 73.1731 68.6755 72.4425 69.8394 71.7892C70.4641 71.4382 71.4332 71.0738 71.9454 70.5968C69.4027 71.319 65.901 73.1949 63.585 74.5184C62.6848 75.0323 61.7745 75.6973 60.8323 76.1189C61.5226 75.3413 62.5001 74.7417 63.3717 74.1858C65.5651 72.7902 67.8391 71.6196 70.1971 70.5262C71.8463 69.7621 73.5644 69.1121 75.128 68.1767C73.5846 68.6603 72.0764 69.233 70.5447 69.7486C66.2789 71.188 62.149 72.6659 58.1637 74.7971C55.8896 76.0131 53.7097 77.4793 51.528 78.8548C50.1206 79.7415 48.7082 80.6736 47.3713 81.6612C46.6391 82.2036 45.9337 82.9023 45.1494 83.3541C45.838 82.1549 48.0011 80.1362 49.0844 79.1503C54.059 74.6191 58.5247 72.1553 64.8732 70.014C67.3151 69.1911 69.8108 68.5025 72.2309 67.6157C70.7429 67.8156 69.2432 68.1716 67.7719 68.4722C65.0898 69.003 62.4211 69.5925 59.7659 70.2374C58.1687 70.622 56.5413 71.1359 54.9239 71.4046C56.244 70.7295 57.9453 70.3885 59.3729 69.972C64.0452 68.6066 68.7578 67.3991 73.5107 66.3527C71.539 66.3897 69.5623 66.8129 67.6107 67.08L53.7869 69.0853C55.1171 68.5327 56.8201 68.3883 58.2409 68.0944C61.6906 67.3722 65.152 66.7155 68.6251 66.1243C70.3919 65.8187 72.194 65.6306 73.9457 65.251C71.9068 65.2393 69.8041 65.4929 67.7686 65.6406C62.2179 66.042 56.5749 66.566 51.0847 67.4813C48.7636 67.8693 46.4577 68.3799 44.1417 68.8098C42.9375 69.0332 41.6746 69.3422 40.4485 69.3439C42.5932 67.9365 49.4136 65.6675 51.916 65.2124C52.9019 65.0327 53.9213 64.9554 54.9172 64.8345C56.8083 64.5927 58.7028 64.3861 60.6006 64.2131C62.5404 64.0468 74.8929 63.5044 75.4975 63.1046L75.5429 62.8594L75.4455 62.7318C74.908 62.5437 69.0769 62.5974 67.8861 62.5605C63.6001 62.4312 59.2687 62.2901 54.9945 61.9492C56.7294 61.798 58.597 61.9676 60.3487 61.9643C62.1356 61.9609 75.2825 61.8232 75.6923 61.4856C75.2473 61.1934 69.1122 60.9448 68.1229 60.8474C65.2762 60.5753 62.4346 60.2697 59.5962 59.9271C58.12 59.7423 56.6555 59.4854 55.1775 59.3191C57.166 59.1579 60.0682 59.566 62.1491 59.7121C63.8017 59.828 75.4908 60.5837 75.9157 60.2546L75.8872 60.0631C74.4781 59.6852 72.8305 59.6449 71.3744 59.4333C67.8996 58.9496 64.4365 58.3954 60.9852 57.7673C59.1294 57.4314 57.1207 57.1375 55.3337 56.5396C55.3018 56.5278 55.2682 56.5177 55.2363 56.506C57.5506 56.7932 59.8448 57.2332 62.1541 57.5523C64.6918 57.9016 67.2563 58.1233 69.8041 58.3887C71.5743 58.5734 73.4738 58.8992 75.2523 58.8472C71.9118 58.0612 68.4991 57.5053 65.1352 56.82C61.6603 56.1113 58.2056 55.2531 54.7392 54.4906C51.7968 53.844 48.9047 53.1974 46.0194 52.3207C44.8975 51.9781 43.7353 51.6489 42.6789 51.13C44.3936 51.0208 46.2159 51.2811 47.9155 51.5011C50.1173 51.785 52.3443 52.0755 54.5175 52.5223C56.9477 53.0211 59.3561 53.6929 61.7695 54.2656C66.5476 55.4009 71.3828 56.4959 76.2634 57.0837C73.2118 56.1281 70.1014 55.3169 67.0699 54.3143C64.4046 53.4325 61.793 52.3778 59.1999 51.3046C57.9487 50.7857 56.4338 50.307 55.3371 49.521C55.8863 49.6621 56.4372 49.914 56.9763 50.0971C58.4122 50.5774 59.8431 51.0712 61.269 51.5801C64.3794 52.6835 67.4965 53.619 70.6892 54.4537C72.7381 54.9877 74.8593 55.5537 76.9755 55.7284C75.3648 55.0935 73.6467 54.7476 72.0126 54.1715C69.8528 53.4325 67.7283 52.6046 65.6373 51.6876C63.5464 50.7706 61.4974 49.7696 59.4904 48.683C58.3702 48.0784 56.9763 47.4754 56.0206 46.6491C56.7008 46.8927 57.3726 47.2655 58.0259 47.5762C59.4871 48.2715 60.9432 48.9886 62.4228 49.6453C66.079 51.2694 69.8259 52.5071 73.677 53.5753C74.5721 53.8239 76.0937 54.405 76.9721 54.3747L76.9016 54.2857C76.2063 54.064 75.5361 53.7584 74.8526 53.5031C69.8041 51.6103 65.0394 49.0827 60.4662 46.2427C59.3342 45.539 57.9772 44.7816 57.0216 43.8478C56.9813 43.8091 56.9427 43.7672 56.9024 43.7268L56.983 43.7722C57.8026 44.2357 58.5399 44.8319 59.3578 45.2972C63.8722 47.8617 68.6184 50.2147 73.556 51.8286C74.3471 52.0873 75.17 52.4181 75.9795 52.6029C75.1851 52.0688 74.1657 51.7094 73.2974 51.2912C72.1319 50.7219 70.9865 50.1139 69.8629 49.4673C63.7076 45.9958 58.0578 41.6712 53.6492 36.1138C53.095 35.4151 52.4383 34.7064 51.9597 33.9573L52.0101 33.8263C52.1746 33.8263 52.1914 33.8263 52.3308 33.917C52.9657 34.3302 53.5451 34.9667 54.1195 35.4638C55.3085 36.5017 56.5211 37.5094 57.7589 38.4852C63.1349 42.7074 70.8655 48.1943 77.0477 50.9167C76.2096 50.2533 75.2658 49.7108 74.3773 49.1163C73.0892 48.2547 71.8178 47.3528 70.5615 46.4459C67.3823 44.1467 64.4147 41.3974 61.6956 38.5725C60.7618 37.6018 59.5946 36.5689 58.906 35.4067C59.3947 35.7829 59.8431 36.317 60.2848 36.7553C61.1397 37.6186 62.0181 38.4567 62.9216 39.2678C65.2863 41.3941 67.7686 43.4598 70.3751 45.2837C71.7019 46.2125 73.0959 47.0438 74.4546 47.9255C75.6319 48.6914 76.9352 49.6739 78.2267 50.1979L78.314 50.1408C78.1595 49.6957 73.9239 46.4862 73.195 45.8883C69.7655 43.0802 66.7307 39.896 63.9192 36.4749C63.1114 35.4907 62.2196 34.4746 61.5545 33.388C61.5377 33.3594 61.5209 33.3326 61.5041 33.304C62.0466 33.8062 62.5219 34.4226 63.0123 34.9785C63.8101 35.8854 64.6246 36.7772 65.4559 37.6539C66.7475 39.0042 68.0843 40.3074 69.4648 41.567C70.8454 42.8266 72.2679 44.0359 73.7307 45.1981C74.4411 45.7573 78.0671 48.6494 78.7775 48.5654L78.6297 48.3991L78.7607 48.3672L78.6432 48.4445C78.2636 47.7693 75.5093 45.6347 74.7535 44.9008C71.5659 41.8106 68.7729 38.193 66.2789 34.5284C65.6961 33.6718 64.9874 32.7364 64.5893 31.7791C64.5809 31.7572 64.5725 31.7354 64.5625 31.7119L64.6666 31.8261C65.6726 32.9446 66.7726 34.7181 67.7383 35.9626C70.0997 38.9991 75.7595 45.3996 79.0479 47.0505C78.2905 45.9773 76.915 44.8387 76.0064 43.8108C73.9574 41.4948 71.8934 38.8429 70.2021 36.2465C67.7568 32.4912 65.7129 28.0691 65.3333 23.5715C65.2813 22.9484 65.1284 22.1322 65.2813 21.5191C65.3249 21.3428 65.3249 21.3378 65.4879 21.2454C65.896 21.3781 66.1395 22.3018 66.2772 22.6931C66.9927 24.7353 67.6544 26.7809 68.605 28.7325C70.7849 33.2117 76.5841 41.3521 80.5192 44.313C79.4913 42.6419 77.9664 41.1925 76.7907 39.6088C74.164 36.0701 72.1218 32.2963 70.3986 28.2538C69.9704 27.2478 69.4934 26.2401 69.1508 25.2022V25.209ZM105.624 63.7663C103.721 63.3532 101.021 61.9576 99.1613 61.1313C96.0593 59.7222 92.9338 58.3668 89.7865 57.0619C89.627 57.4683 89.4556 57.8731 89.3448 58.2946C91.7095 59.3896 94.0087 60.6022 96.3919 61.667C98.2947 62.5151 100.208 63.3364 102.132 64.1308C103.063 64.5188 104.766 65.0461 105.503 65.6054C103.439 65.3501 101.318 64.465 99.3091 63.9091C95.7318 62.94 92.1311 62.0617 88.5084 61.274L88.2515 62.097C91.9547 63.4876 95.8292 64.6279 99.6383 65.691C101.529 66.2184 104.26 66.7239 105.982 67.5485C104.373 67.3252 102.767 67.0195 101.16 66.7793C97.9555 66.294 94.7426 65.8724 91.5214 65.5147C89.9175 65.3283 88.1406 64.9739 86.53 65.0176C87.6368 65.4777 88.893 65.7297 90.0636 65.9866C92.8045 66.5896 95.5824 67.0195 98.3501 67.473C101.368 67.9684 104.411 68.3681 107.421 68.9089C112.506 69.8225 117.421 71.0805 122.264 72.8741C122.823 71.8077 123.211 70.5027 123.213 69.2918C123.215 68.3933 122.946 67.2227 122.182 66.6618C121.01 65.8019 119.604 65.1805 118.312 64.5221C116.463 63.595 114.628 62.6428 112.807 61.6637C107.658 58.8757 102.673 56.0324 98.2779 52.1108C97.1409 51.0964 96.0106 50.0568 94.9492 48.9635C94.0843 48.0733 93.2731 47.1362 92.3914 46.2612L92.4082 46.3468L92.3124 46.2259L92.2688 46.278C92.3074 46.985 93.2395 47.9188 93.6795 48.4445C94.7057 49.6688 95.7822 50.8461 96.9092 51.9764C98.0378 53.1067 99.2117 54.1866 100.433 55.2145C102.448 56.9258 104.648 58.5516 106.492 60.4477C104.791 59.571 103.184 58.4139 101.622 57.3155C99.5795 55.8946 97.5776 54.4201 95.6176 52.8867C95.1407 52.5122 91.9698 49.7578 91.7145 49.6789C91.5751 49.8166 91.466 49.9258 91.4626 50.1357C91.4559 50.6698 92.3729 51.4004 92.739 51.7615C95.3271 54.3159 98.2141 56.553 101.188 58.6389C102.888 59.8313 104.68 60.928 106.292 62.2397C103.446 61.0288 100.33 59.0521 97.6481 57.4465C95.3422 56.066 92.9825 54.7744 90.8076 53.1907C90.6867 53.5115 90.6078 53.8423 90.5238 54.1732C91.0579 54.6686 91.6994 55.0952 92.2839 55.5319C95.0332 57.5926 97.9907 59.3846 100.99 61.059C102.529 61.9172 104.21 62.72 105.624 63.7663ZM121.717 99.2302C120.417 100.414 119.399 101.262 117.815 102.097C115.682 103.219 113.279 103.941 110.958 104.556C102.151 106.885 92.7189 107.565 83.6329 107.139C75.9577 106.778 66.8936 105.789 59.8851 102.477C58.6826 101.909 57.3105 101.267 56.4036 100.27C56.1752 100.018 55.9551 99.7575 55.7351 99.4989C55.6999 99.6954 55.851 99.9658 55.9199 100.157C57.2853 102.829 60.8794 104.038 63.5783 104.91C76.0971 108.949 95.6596 108.783 108.519 105.988C111.512 105.338 114.619 104.584 117.36 103.179C118.882 102.399 121.068 101.056 121.681 99.346C121.695 99.3074 121.705 99.2671 121.717 99.2285V99.2302ZM118.756 107.527C120.961 107.016 123.169 106.262 125.354 105.652C129.064 104.626 132.784 103.644 136.518 102.705C135.735 102.425 134.904 102.236 134.103 102.01C131.459 101.385 128.833 100.466 126.246 99.6349C126.208 100.053 126.12 100.488 126.006 100.893C125.02 104.4 121.675 105.901 118.756 107.528V107.527ZM84.4777 12.722C80.6837 12.8732 76.8797 13.0865 73.1278 13.7062C72.6407 13.7885 72.1537 13.8758 71.6666 13.9699C71.1813 14.0623 70.6959 14.1597 70.2122 14.2638C69.7285 14.3663 69.2448 14.4737 68.7628 14.5879C68.2808 14.7005 67.8005 14.818 67.3218 14.9423C66.8432 15.0649 66.3645 15.1926 65.8876 15.3252C65.4106 15.4579 64.9353 15.5956 64.4617 15.7384C63.9881 15.8811 63.5161 16.0289 63.0442 16.1818C62.574 16.3346 62.1037 16.4925 61.6368 16.6537C61.1699 16.8166 60.703 16.9829 60.2395 17.1559C59.776 17.3272 59.3141 17.5052 58.8539 17.6866C58.3937 17.868 57.9352 18.0544 57.4784 18.2458C57.0216 18.4373 56.5682 18.6321 56.1147 18.8337C55.6612 19.0352 55.2128 19.2401 54.7644 19.45C54.316 19.66 53.8709 19.8749 53.4275 20.0933C52.9842 20.3133 52.5424 20.5366 52.1041 20.7651C51.6658 20.9935 51.2291 21.2269 50.7941 21.4637C50.3608 21.7005 49.9292 21.944 49.4992 22.1893C49.0693 22.4361 48.6444 22.6864 48.2195 22.9417C47.7962 23.1969 47.3747 23.4573 46.9565 23.7209C46.5383 23.9846 46.1218 24.2533 45.7103 24.5271C45.2972 24.7992 44.8874 25.0763 44.481 25.3584C44.0745 25.6389 43.6698 25.9244 43.2684 26.215C42.867 26.5038 42.469 26.7977 42.0743 27.0967C41.6796 27.3939 41.2866 27.6963 40.8986 28.0036C40.5107 28.3093 40.1244 28.62 39.7415 28.934C39.3586 29.2481 38.9807 29.5655 38.6045 29.888C38.2283 30.2104 37.8571 30.5362 37.4876 30.8654C37.1181 31.1946 36.7537 31.5288 36.3909 31.8664C36.0282 32.204 35.6704 32.5449 35.3161 32.8892C34.9617 33.2335 34.6107 33.5828 34.263 33.9355C33.9154 34.2882 33.5711 34.6426 33.2318 35.002C32.8909 35.3614 32.555 35.7241 32.2225 36.0903C31.806 36.5337 31.3962 36.9821 30.9914 37.4355C30.5867 37.889 30.1869 38.3475 29.7939 38.811C29.401 39.2746 29.013 39.7431 28.6301 40.2151C28.2488 40.6887 27.8726 41.1656 27.5015 41.6477C27.132 42.1297 26.7675 42.6167 26.4098 43.1088C26.0521 43.6009 25.6994 44.0963 25.3534 44.5968C25.0074 45.0973 24.6682 45.6011 24.3357 46.11C24.0031 46.6189 23.6756 47.1311 23.3548 47.6484C23.0341 48.1657 22.72 48.6863 22.4127 49.2103C22.1053 49.7343 21.8047 50.2634 21.5091 50.7941C21.2152 51.3265 20.9263 51.8622 20.6458 52.4013C20.3654 52.9405 20.0899 53.4829 19.8229 54.0288C19.5559 54.5746 19.2939 55.1238 19.0403 55.6763C18.7867 56.2289 18.5381 56.7848 18.2979 57.3424C18.0578 57.8999 17.8243 58.4626 17.5976 59.0269C17.3709 59.5912 17.1509 60.1588 16.9392 60.7282C16.7276 61.2975 16.5211 61.8702 16.3229 62.4446C16.1247 63.019 15.9332 63.5967 15.7502 64.1761C15.5671 64.7556 15.3891 65.3367 15.2195 65.9211C15.0498 66.5056 14.8886 67.0917 14.7324 67.6779C14.5779 68.2657 14.4301 68.8552 14.289 69.448C14.148 70.0392 14.0153 70.632 13.8893 71.2283C13.7634 71.8228 13.6458 72.419 13.5349 73.0169C13.4241 73.6148 13.32 74.2144 13.2242 74.8139C13.1285 75.4135 13.0395 76.0164 12.9589 76.6177C12.8783 77.2206 12.8044 77.8236 12.7389 78.4282C12.6734 79.0328 12.6146 79.6374 12.5625 80.2437C12.5121 80.85 12.4685 81.4563 12.4315 82.0626C12.3963 82.6688 12.3677 83.2768 12.3459 83.8848C12.3257 84.4928 12.3106 85.1007 12.3056 85.7087C12.2989 86.3167 12.3005 86.9246 12.3106 87.5326C12.319 88.1406 12.3358 88.7486 12.361 89.3548C12.3862 89.946 12.4181 90.5355 12.4584 91.125C12.4987 91.7145 12.5457 92.304 12.5995 92.8918C12.6532 93.4796 12.7154 94.0674 12.7842 94.6553C12.8531 95.2414 12.9287 95.8275 13.0126 96.4137C13.0949 96.9981 13.1856 97.5826 13.283 98.1654C13.3804 98.7481 13.4846 99.3292 13.5971 99.9103C13.7096 100.49 13.8272 101.069 13.9531 101.647C14.0791 102.225 14.2118 102.801 14.3529 103.373C14.4922 103.948 14.64 104.521 14.7946 105.09C14.9491 105.661 15.1103 106.229 15.2782 106.795C15.4462 107.36 15.6209 107.925 15.8039 108.487C15.9853 109.05 16.1751 109.609 16.3699 110.167C16.5664 110.724 16.7679 111.279 16.9779 111.831C17.1878 112.384 17.4028 112.933 17.6261 113.48C17.8495 114.028 18.0796 114.572 18.3147 115.113C18.5515 115.654 18.7934 116.193 19.0436 116.729C20.4326 119.773 22.0583 122.882 24.0216 125.598C30.5396 123.379 37.0459 121.125 43.5405 118.836C43.5337 115.407 43.5455 111.987 43.4682 108.56C42.0558 108.118 38.9807 107.354 37.8773 106.642C37.6119 106.47 37.4121 106.245 37.2643 105.967C36.9838 105.437 36.836 104.757 37.0325 104.178C37.2441 103.551 37.7916 103.041 38.3761 102.759C39.6945 102.124 42.8368 101.707 44.3668 101.398C47.3999 100.785 50.4246 100.117 53.4678 99.556C53.3704 98.2846 53.8272 97.1963 54.6468 96.2407C56.8318 93.6912 61.1279 92.1596 64.2165 90.9839C67.2496 89.8301 70.098 88.8124 73.2941 88.1842C77.0242 87.4486 80.8433 87.1094 84.6305 86.8457C95.1088 86.1185 115.316 86.8625 123.547 94.0557C124.612 94.9861 125.336 95.972 125.894 97.2702L134.598 99.9977L134.61 97.7824C133.757 97.3995 132.884 96.9393 132.511 96.019C131.97 94.6872 131.956 90.8597 132.524 89.5782C133.013 88.4798 134.115 87.7963 135.109 87.2085C135.006 84.654 135.287 83.3625 133.231 81.468C132.148 80.4687 130.819 79.6508 129.469 79.063C128.398 78.5978 127.23 78.5541 126.119 78.2317C123.959 77.6036 121.922 76.6093 119.673 76.2784C118.205 76.0635 116.717 76.3255 115.257 76.0534C113.015 75.6352 110.83 74.8845 108.576 74.4579C107.508 74.248 106.437 74.0548 105.362 73.8801C104.287 73.7038 103.211 73.5443 102.132 73.4015C101.052 73.2587 99.9725 73.1328 98.8893 73.0236C97.806 72.9145 96.7211 72.8221 95.6361 72.7465C94.5495 72.6709 93.4629 72.6121 92.3763 72.5718C91.2879 72.5299 90.1996 72.5063 89.1114 72.4979C88.023 72.4895 86.9348 72.4979 85.8465 72.5265C84.7582 72.5534 83.6698 72.5954 82.5832 72.6558C82.3699 72.6659 82.1566 72.681 81.9434 72.6995C80.3109 75.217 78.4937 77.7211 76.3339 79.8205C75.5882 80.546 74.6645 81.1069 73.9474 81.8476C73.3461 82.4673 72.8557 83.2382 72.3015 83.9033C71.3979 84.9966 70.444 86.0446 69.4413 87.0489C67.2899 89.244 65.6642 90.5825 62.5353 91.2409C61.2102 91.5197 59.7272 91.6171 58.3803 91.4945C57.7404 91.4357 57.0787 91.2493 56.4372 91.2829C55.626 91.3232 54.7778 91.6356 53.9818 91.8085C51.2912 92.3947 48.8241 92.1159 46.493 90.5691C44.8269 89.464 43.6412 87.8668 42.8603 86.0396C42.7931 85.7994 42.7175 85.5609 42.6839 85.314C39.6592 83.1223 37.9277 80.0354 37.3298 76.3624C37.2223 75.7057 37.1568 75.044 37.1333 74.379C37.1114 73.7139 37.1316 73.0488 37.1954 72.3871C37.2676 71.6784 37.4608 70.8857 37.4171 70.1803C37.3466 69.0281 36.8444 67.9113 36.6429 66.776C36.0198 63.2743 36.2633 59.4115 37.3062 56.0173C37.6505 54.8987 38.1611 53.7214 38.7237 52.6936C39.1386 51.9344 39.7297 51.1686 39.9682 50.3322C40.2621 49.3044 40.3024 48.1892 40.5594 47.1412C40.6736 46.681 40.7979 46.2225 40.9339 45.7674C41.07 45.3123 41.2161 44.8622 41.3739 44.4138C41.5318 43.967 41.6998 43.5236 41.8795 43.0836C42.0592 42.6436 42.2489 42.2103 42.4488 41.7787C42.6487 41.3487 42.8603 40.9238 43.0803 40.5039C43.302 40.0841 43.5321 39.6692 43.7739 39.2611C44.0158 38.853 44.266 38.4499 44.5263 38.0536C44.7866 37.6572 45.057 37.2676 45.3375 36.8847C46.3855 35.4454 47.7912 34.3151 48.7603 32.9832C49.4505 32.0343 49.9409 30.8923 50.5456 29.8813C52.398 26.7893 54.9122 23.6991 57.9369 21.6955C58.948 21.0271 60.0665 20.3939 61.1917 19.9488C61.9962 19.6297 62.9754 19.4248 63.7059 18.9697C64.3878 18.5448 64.9756 17.9872 65.634 17.527C67.5738 16.17 70.0879 15.1153 72.4241 14.766C74.1321 14.5107 76.124 14.5023 77.8051 14.9289C78.3711 15.0716 78.9136 15.3891 79.4863 15.4932C80.0237 15.5923 80.6367 15.5184 81.1842 15.5285C82.5849 15.5553 83.9705 16.1717 85.084 16.998C87.1531 18.5347 87.9794 20.4913 89.0559 22.7485C90.1325 25.0057 90.8849 26.5676 91.2493 29.1154C91.3686 29.9467 91.4576 30.7949 91.4677 31.6346C91.4811 32.6709 91.3568 33.7088 91.6138 34.7232C91.8909 35.8132 92.3847 36.8796 92.8767 37.8907C96.229 44.7732 102.826 51.1367 108.869 55.7032C112.8 58.6742 116.991 61.1094 121.309 63.4657C128.008 67.1203 138.79 71.9286 142.823 78.5978C143.676 80.0086 144.202 81.6763 144.423 83.3037C144.626 84.7984 144.551 86.2999 144.643 87.798C145.745 88.3136 146.591 89.0895 147.036 90.25C147.557 91.6087 147.463 94.4923 146.84 95.8175C146.412 96.7294 145.36 97.6061 144.514 98.1133C144.475 99.5946 144.413 101.074 144.327 102.554C144.124 106.608 143.82 110.281 140.713 113.311C139.407 114.586 137.749 115.451 136.036 116.043C135.967 117.636 135.938 119.228 135.949 120.821C139.165 122.074 142.361 123.378 145.59 124.59C146.481 124.924 147.361 125.339 148.262 125.632C158.645 108.818 162.368 88.8527 157.819 69.5253C157.679 68.9408 157.533 68.3597 157.38 67.7803C157.228 67.2009 157.066 66.6215 156.9 66.0454C156.732 65.4693 156.559 64.895 156.378 64.3223C156.196 63.7496 156.008 63.1802 155.813 62.6126C155.619 62.0449 155.417 61.4806 155.207 60.918C154.999 60.3553 154.782 59.7961 154.561 59.2385C154.339 58.6809 154.109 58.1267 153.874 57.5741C153.638 57.0216 153.395 56.4741 153.146 55.9282C152.898 55.3824 152.643 54.8399 152.381 54.2991C152.119 53.76 151.85 53.2226 151.574 52.6902C151.299 52.1561 151.019 51.6271 150.73 51.0998C150.442 50.5741 150.147 50.0501 149.846 49.5311C149.546 49.0122 149.238 48.4966 148.926 47.9843C148.613 47.4721 148.294 46.9649 147.969 46.4594C147.643 45.9555 147.312 45.455 146.974 44.9596C146.637 44.4641 146.294 43.972 145.945 43.4833C145.595 42.9946 145.239 42.5126 144.88 42.0323C144.519 41.5536 144.153 41.0783 143.78 40.6081C143.407 40.1378 143.029 39.6726 142.645 39.2107C142.262 38.7489 141.872 38.2937 141.477 37.842C141.083 37.3902 140.683 36.9434 140.277 36.5001C139.87 36.0584 139.46 35.62 139.044 35.1884C138.627 34.7568 138.206 34.3285 137.779 33.907C137.353 33.4854 136.921 33.0689 136.484 32.6557C136.048 32.2443 135.606 31.8378 135.159 31.4364C134.712 31.035 134.261 30.6404 133.806 30.2507C133.349 29.8611 132.889 29.4765 132.423 29.0969C131.958 28.7174 131.488 28.3445 131.014 27.9784C130.541 27.6106 130.06 27.2495 129.578 26.8935C129.095 26.5374 128.608 26.1881 128.115 25.8438C127.623 25.4995 127.128 25.1619 126.627 24.8294C126.127 24.4969 125.623 24.171 125.116 23.8519C124.736 23.6185 124.357 23.3884 123.974 23.1617C123.591 22.9349 123.206 22.7116 122.818 22.4932C122.432 22.2732 122.043 22.0583 121.651 21.845C121.26 21.6317 120.869 21.4234 120.474 21.2168C120.079 21.0119 119.683 20.8087 119.285 20.6105C118.887 20.4124 118.487 20.2159 118.086 20.0244C117.684 19.8329 117.281 19.6448 116.876 19.4601C116.472 19.2754 116.065 19.0957 115.657 18.9176C115.249 18.7413 114.839 18.5666 114.428 18.397C114.016 18.2274 113.603 18.0611 113.19 17.8982C112.775 17.7353 112.36 17.5774 111.944 17.4212C111.527 17.2667 111.109 17.1156 110.689 16.9678C110.269 16.82 109.848 16.6755 109.426 16.5361C109.005 16.3967 108.58 16.259 108.157 16.1263C107.732 15.9937 107.305 15.8643 106.879 15.7401C106.452 15.6158 106.024 15.4932 105.594 15.3756C105.164 15.2581 104.734 15.1439 104.304 15.0347C103.872 14.9255 103.441 14.818 103.007 14.7173C102.574 14.6165 102.141 14.5174 101.706 14.4217C101.271 14.3276 100.836 14.2369 100.399 14.1496C99.9624 14.0623 99.5258 13.98 99.0874 13.901C98.6491 13.8221 98.2107 13.7465 97.7724 13.676C97.3324 13.6055 96.894 13.5383 96.4523 13.4745C96.0123 13.4106 95.5706 13.3519 95.1289 13.2964C94.6872 13.241 94.2455 13.1889 93.8038 13.1419C93.3621 13.0949 92.9187 13.0512 92.4753 13.0109C92.032 12.9706 91.5886 12.9353 91.1452 12.9034C90.7018 12.8715 90.2568 12.843 89.8134 12.8195C89.3683 12.7959 88.9249 12.7758 88.4799 12.759C88.0348 12.7422 87.5897 12.7304 87.1464 12.722C86.7013 12.7137 86.2562 12.7103 85.8112 12.7103C85.3661 12.7103 84.9211 12.7137 84.476 12.722H84.4777ZM123.892 67.5267C124.456 69.3506 124.145 71.3022 123.262 72.9833C123.232 73.0404 123.201 73.0975 123.169 73.1529C124.98 73.776 126.814 74.3286 128.623 74.955L129.325 75.2204C129.278 73.6165 129.531 71.0133 128.268 69.8427C127.59 69.2129 124.825 67.9231 123.892 67.5284V67.5267ZM128.712 70.0207C129.457 71.7254 129.454 73.4569 129.563 75.2825C133.182 76.4162 136.617 78.3946 138.449 81.8459C139.976 84.7228 139.492 88.0213 139.543 91.1603C140.557 91.1401 141.54 91.1502 142.525 90.8731C142.813 90.2685 142.601 84.9932 142.468 84.0007C142.373 83.2919 142.188 82.6084 141.951 81.9349C141.506 80.672 140.854 79.4359 140.033 78.3744C138.312 76.1508 133.347 72.1184 130.739 70.8789C130.074 70.5666 129.399 70.2794 128.712 70.0207ZM87.4554 88.6327C81.3236 88.9501 66.0152 90.2131 61.9492 94.7846C61.1884 95.6394 60.5384 96.7647 60.6308 97.9454C60.7215 99.1075 61.4638 100.065 62.3321 100.782C68.1582 105.595 84.8673 106.23 92.3292 106.054C99.0757 105.652 113.029 104.527 117.762 99.2218C118.457 98.4425 118.962 97.4163 118.885 96.3498C118.803 95.2011 118.018 94.2589 117.164 93.5552C111.922 89.239 99.0253 88.6293 92.4216 88.5772C90.7808 88.5638 89.0912 88.5134 87.4554 88.6327ZM135.02 89.5715C134.659 90.0048 134.123 90.5523 134.202 91.167C134.252 91.5516 134.571 91.8589 134.882 92.0571C136.782 93.268 141.103 93.2798 143.234 92.7524C144 92.5626 144.678 92.3074 145.162 91.654C145.204 91.2207 145.218 90.9251 144.932 90.5691C144.673 90.245 144.275 90.03 143.921 89.8251C143.904 90.2668 143.963 90.8848 143.612 91.2107C142.64 92.1142 140.251 92.0151 139.02 91.9127C138.234 91.8472 135.918 91.5583 135.398 90.9487C135.069 90.5624 135.317 89.9175 135.018 89.5732L135.02 89.5715ZM134.249 92.7843C134.267 93.0984 134.236 93.3016 134.503 93.5266C135.923 94.7191 140.384 94.8081 142.178 94.5679C142.952 94.4638 144.589 94.2438 145.108 93.609C145.132 93.5804 145.154 93.5502 145.176 93.5199L145.243 93.0178L145.149 92.9103C144.509 93.0111 143.96 93.4376 143.325 93.5905C140.453 94.2807 136.916 94.0674 134.251 92.7843H134.249ZM134.232 94.5679C134.44 95.1977 135.005 95.6411 135.582 95.935C137.702 97.0166 140.948 97.1023 143.177 96.3213C143.802 96.103 144.348 95.8225 144.885 95.4345C144.999 95.2414 145.105 95.0919 145.108 94.8602L145.016 94.7678C144.237 94.835 143.533 95.2649 142.771 95.4161C140.596 95.846 138.181 95.8023 136.046 95.1994C135.426 95.0247 134.843 94.751 134.234 94.5696L134.232 94.5679ZM142.137 97.5372C141.283 97.6414 140.436 97.727 139.575 97.7556C139.622 98.953 139.59 100.142 139.544 101.34C139.439 104.096 139.198 106.655 137.233 108.765C135.834 110.266 134.052 111.428 132.413 112.654C129.127 115.11 125.665 117.506 122.572 120.2C122.704 120.694 122.84 121.171 123.028 121.648C123.405 121.653 125.721 119.904 126.231 119.584C127.168 118.994 128.132 118.44 129.081 117.872C130.524 117.011 131.961 116.132 133.431 115.314C135.312 114.267 137.573 113.319 139.124 111.806C141.797 109.203 142.013 105.679 142.176 102.183C142.255 100.663 142.312 99.1411 142.349 97.6195L142.255 97.5154L142.137 97.5389V97.5372ZM52.9506 101.548C50.4498 102.035 47.9457 102.498 45.4366 102.937C44.1719 103.165 42.8687 103.34 41.6292 103.674C44.0409 104.208 46.3922 104.929 48.7586 105.629L59.3746 108.827L73.551 113.178C77.1283 114.265 80.7425 115.261 84.2812 116.47C86.6392 115.825 89.0358 115.303 91.4089 114.717L99.7408 112.604C103.708 111.601 107.671 110.615 111.616 109.529L111.628 109.505L111.574 109.455C107.997 110.172 104.356 110.894 100.735 111.349C99.3511 111.522 97.9655 111.665 96.5766 111.779C95.1877 111.893 93.7954 111.977 92.4031 112.033C91.0108 112.088 89.6169 112.113 88.2229 112.11C86.8289 112.107 85.435 112.073 84.0427 112.011C82.6504 111.949 81.2598 111.856 79.8709 111.736C78.4819 111.615 77.0964 111.463 75.7142 111.284C74.332 111.104 72.9531 110.896 71.5793 110.657C70.2055 110.419 68.8384 110.153 67.4763 109.858C63.758 109.075 59.1142 108.034 55.9165 105.916C54.845 105.206 53.7181 104.26 53.446 102.943C53.3788 102.619 53.3956 101.739 53.2378 101.508L52.9522 101.546L52.9506 101.548ZM137.697 103.061C132.324 104.358 127.019 105.916 121.693 107.386C113.523 109.71 105.317 111.902 97.0754 113.956C93.9936 114.737 90.9269 115.56 87.835 116.31C86.5451 116.623 85.2536 117.033 83.9386 117.217C81.6058 116.262 79.0379 115.649 76.6194 114.921L65.5114 111.522L51.8371 107.416L44.2492 105.14C43.0215 104.776 41.8005 104.354 40.5627 104.028C40.2252 103.939 39.8322 103.82 39.4963 103.96C39.1805 104.092 38.8665 104.541 38.6565 104.803C39.0982 104.937 39.5416 105.085 39.9884 105.199L64.1543 112.528C70.8135 114.461 77.4373 116.515 84.0225 118.69C86.5317 118.16 89.0173 117.473 91.5013 116.833C96.3163 115.603 101.116 114.315 105.901 112.972L121.895 108.691L132.277 105.906C134.316 105.357 136.454 104.608 138.552 104.332C138.597 103.96 138.693 103.555 138.575 103.192C138.409 103.046 138.322 102.999 138.095 103.006C137.964 103.009 137.83 103.039 137.7 103.063L137.697 103.061ZM133.789 106.922L132.482 107.196C132.422 108.152 132.218 110.765 132.433 111.606L132.553 111.652L132.637 111.576C133.125 111.185 133.617 110.797 134.111 110.412C134.099 109.876 134.165 107.238 133.911 106.922H133.787H133.789ZM98.9396 108.627C95.3624 108.702 91.8036 108.902 88.2229 108.917C84.1754 108.934 80.059 108.758 76.0198 109.038C77.9983 109.462 79.8978 110.011 81.9131 110.259C86.2327 110.733 90.4734 110.777 94.8065 110.476C96.4003 110.365 97.9655 110.254 99.5375 109.955C101.19 109.641 102.769 109.164 104.353 108.605C102.547 108.57 100.743 108.576 98.938 108.625L98.9396 108.627ZM45.408 109.097C45.398 113.961 45.5793 118.872 45.2317 123.725C45.7087 123.819 46.1823 123.905 46.6643 123.972C46.76 122.494 46.5853 120.936 46.5736 119.449C46.5635 116.153 46.5753 112.857 46.6089 109.561L45.4064 109.097H45.408ZM128.299 111.463C124.416 112.392 120.576 113.548 116.717 114.579L87.7409 122.467V132.225C87.7409 133.871 87.5713 135.735 87.8366 137.353C94.0289 135.586 100.201 133.755 106.355 131.861C110.148 130.705 113.919 129.508 117.753 128.485C121.204 127.474 124.662 126.37 128.139 125.46C128.302 123.683 128.512 122.189 128.456 120.38C127.662 120.89 126.849 121.345 126.018 121.792C125.788 122.639 125.516 123.369 124.699 123.819C124.174 124.11 123.662 124.177 123.077 124.221C122.041 125.544 120.183 126.285 118.544 126.495C116.005 126.821 113.585 125.593 111.065 125.512C110.167 126.822 109.25 127.998 107.57 128.288C106.423 128.487 105.288 128.11 104.369 127.425C103.498 126.775 102.896 125.89 102.732 124.804C102.507 123.309 103.088 121.567 103.99 120.378C104.786 119.33 106.052 118.457 107.377 118.307C108.38 118.195 109.307 118.549 110.07 119.189C110.286 119.372 110.489 119.569 110.679 119.78C110.869 119.992 111.044 120.215 111.201 120.45C113.051 120.388 117.253 121.307 118.581 120.813C118.722 120.449 118.563 119.92 118.558 119.527C118.532 117.758 119.606 116.231 121.204 115.531C122.118 115.131 123.084 115.047 124.023 115.407C124.535 115.603 124.948 115.912 125.371 116.252C126.364 115.489 127.35 114.691 128.398 114.008C128.403 113.225 128.517 112.273 128.356 111.514L128.297 111.462L128.299 111.463ZM50.3272 112.312C50.2214 114.985 50.2684 117.689 50.2752 120.366C50.2785 121.554 50.166 122.825 50.2684 124.002C50.3474 124.919 50.6631 125.801 50.737 126.742C60.6426 130.127 70.4725 133.774 80.4049 137.079C80.4486 135.238 80.3613 133.381 80.3478 131.54L80.2706 121.658C76.1861 120.232 72.0193 119.024 67.8912 117.735C62.06 115.854 56.2054 114.045 50.3289 112.312H50.3272ZM122.478 116.411C121.608 116.663 120.875 117.059 120.413 117.877C119.955 118.69 119.958 119.553 120.017 120.455C120.217 119.854 120.378 119.281 120.776 118.776C122.184 117.494 123.326 118.198 124.631 116.928C123.871 116.493 123.368 116.336 122.478 116.411ZM133.743 117.138C133.198 117.466 132.613 117.778 132.126 118.19C132.089 118.927 131.931 123.336 132.218 123.633C132.229 123.643 132.242 123.648 132.254 123.655C132.833 123.593 133.367 123.489 133.928 123.332C133.945 122.494 134.031 117.471 133.743 117.138ZM107.275 119.344C106.119 119.757 105.276 120.415 104.732 121.545C104.203 122.644 104.057 124.043 104.484 125.197C104.783 126.008 105.352 126.612 106.138 126.97C106.22 127.009 106.304 127.042 106.39 127.071C106.475 127.099 106.563 127.125 106.65 127.145C106.737 127.165 106.826 127.18 106.917 127.192C107.006 127.203 107.097 127.209 107.188 127.21C107.278 127.212 107.369 127.21 107.458 127.202C107.549 127.193 107.638 127.182 107.727 127.165C107.816 127.148 107.903 127.126 107.99 127.099C108.078 127.073 108.162 127.042 108.246 127.007C108.689 126.822 109.027 126.612 109.218 126.164L109.179 126.004C109.085 126.003 108.98 125.991 108.887 126.004C108.12 126.214 107.428 126.372 106.689 125.949C106.173 125.655 105.834 125.126 105.689 124.558C105.486 123.759 105.658 122.914 106.096 122.224C106.491 121.604 107.194 121.015 107.937 120.89C108.66 120.768 109.403 120.853 110.14 120.732C109.673 120.041 109.151 119.498 108.289 119.347C107.953 119.288 107.612 119.318 107.275 119.342V119.344ZM86.0413 119.765C85.4904 119.903 84.9227 120.022 84.3836 120.2C84.3786 122.16 84.2157 137.353 84.3954 137.84L84.5381 137.93L84.8404 137.861C85.3745 137.69 85.9254 137.536 86.4443 137.326L86.3923 123.208C86.3923 122.686 86.4863 120.089 86.4024 119.834C86.3872 119.79 86.3486 119.758 86.3217 119.72L86.0413 119.763V119.765ZM82.6118 120.062L82.637 137.66C82.9678 137.757 83.2533 137.858 83.554 138.031L83.5288 120.247L82.6118 120.064V120.062ZM121.372 120.652C121.292 121.233 121.262 121.901 121.618 122.405C121.75 122.592 121.89 122.666 122.11 122.719C121.979 122.301 121.66 120.894 121.372 120.652ZM108.21 121.762C107.522 122.093 106.971 122.528 106.69 123.274C106.58 123.567 106.595 123.751 106.707 124.038L106.791 124.075C106.795 124.051 106.796 124.028 106.8 124.004C106.86 123.549 107.003 122.993 107.272 122.615C107.54 122.553 107.777 122.676 108.036 122.765C108.864 123.048 109.769 123.107 110.625 123.274C113.395 123.808 116.394 124.721 119.223 124.199C119.908 124.048 120.56 123.833 121.196 123.534C120.895 122.99 120.6 122.449 120.341 121.885C119.522 122.185 118.741 122.442 117.866 122.514C115.402 122.716 112.322 121.408 110.098 121.78C109.505 121.88 108.948 122.116 108.405 122.368C108.331 122.192 108.314 122.029 108.291 121.841L108.21 121.76V121.762ZM124.37 122.859C124.004 122.998 123.586 123.112 123.282 123.364C123.21 123.541 123.223 123.547 123.277 123.732L123.378 123.821C123.821 123.645 124.187 123.467 124.451 123.057L124.434 122.906L124.37 122.857V122.859ZM134.388 123.866C133.846 124.065 133.219 124.295 132.633 124.266C132.104 124.239 131.427 123.927 130.919 124.038C130.939 124.206 131.051 124.301 131.191 124.394C131.238 124.424 131.286 124.449 131.335 124.476C132.346 124.778 133.357 124.849 134.333 124.35C134.474 124.278 134.571 124.191 134.684 124.08L134.691 123.932C134.571 123.883 134.521 123.86 134.39 123.866H134.388ZM48.4311 124.822L46.063 125.163C46.142 125.643 46.1336 126.727 46.3687 127.101C46.4308 127.104 46.5618 127.123 46.6223 127.113C47.4503 126.983 48.2631 126.807 49.0794 126.624C48.987 126.073 48.9433 125.282 48.5503 124.854L48.4311 124.824V124.822ZM135.314 124.854C133.997 125.573 133.015 125.929 131.52 125.485C131.275 125.413 131.034 125.331 130.798 125.239C131.033 125.962 131.239 126.411 131.871 126.876C132.611 127.351 133.327 127.686 134.236 127.499C134.751 127.395 135.275 127.106 135.561 126.654C135.645 126.522 135.72 126.381 135.792 126.241C135.745 125.794 135.718 125.358 135.552 124.935C135.383 124.824 135.465 124.834 135.314 124.854ZM44.1383 125.01C43.9217 125.484 43.8461 125.979 43.8075 126.495C44.4037 126.678 45.0083 126.846 45.5978 127.049L45.7473 127.005C45.8212 126.438 45.7221 125.826 45.6818 125.255C45.1662 125.096 44.6842 124.982 44.1383 125.008V125.01ZM108.538 125.059L108.504 125.249C108.702 125.501 109.09 125.606 109.391 125.699C109.485 125.447 109.576 125.344 109.487 125.086C109.213 124.963 108.833 125.039 108.54 125.059H108.538ZM127.078 127.081C124.988 127.692 122.931 128.398 120.848 129.031L101.217 135.053C97.0133 136.368 92.7978 137.761 88.5554 138.943C88.6545 139.568 88.8443 140.439 88.4547 140.999C87.8467 141.872 85.1344 142.858 84.0796 142.974C83.0686 143.085 80.4117 142.116 79.6559 141.422C79.3922 141.18 79.2931 140.849 79.2814 140.5C79.2629 139.907 79.4157 139.267 79.7886 138.8C69.9452 134.939 59.8028 131.906 49.9208 128.161C48.6477 128.431 47.3697 128.678 46.0865 128.901C44.8756 128.393 43.5589 128.127 42.4925 127.331C41.6662 127.477 40.8499 127.659 40.0404 127.877C40.9658 128.174 41.8862 128.487 42.7998 128.816C53.1756 132.48 63.4355 136.464 73.7609 140.266C76.9352 141.435 80.0909 142.782 83.302 143.837C85.0269 143.466 86.7063 142.848 88.3892 142.319L95.8158 140.023L120.867 132.128C124.249 131.053 128.114 129.548 131.511 128.807C130.012 128.275 128.557 127.665 127.079 127.083L127.078 127.081ZM136.469 127.439C135.767 128.312 135.094 128.829 133.945 128.957C133.547 129.001 133.134 129.002 132.742 129.079C131.668 129.293 130.139 130.059 129.007 130.426C126.329 131.296 123.645 132.148 120.954 132.981C108.511 136.981 96.0425 140.903 83.5489 144.746C83.4431 145.302 83.339 145.856 83.2617 146.415C83.7589 146.284 84.2644 146.163 84.7481 145.987L123.915 133.376C128.739 131.77 133.587 130.269 138.369 128.537C137.771 128.151 137.131 127.709 136.471 127.437L136.469 127.439ZM37.8403 127.921C37.8034 128.45 37.7883 128.992 37.7144 129.516C41.6309 131.043 81.8879 146.548 82.4237 146.428C82.5295 145.847 82.6135 145.249 82.7646 144.68C80.8366 144.035 78.9371 143.283 77.0258 142.584L64.2534 137.863C58.3921 135.745 52.5559 133.557 46.7466 131.301C43.7773 130.176 40.7844 129.108 37.8403 127.921ZM138.995 129.237C132.58 131.532 126.124 133.7 119.624 135.742L96.019 143.348C91.7179 144.725 87.3781 146.032 83.1156 147.525C82.9813 148.121 82.7478 148.818 82.7478 149.426C82.8872 149.483 82.8301 149.482 82.909 149.477L139.22 130.924C139.242 130.4 139.302 129.844 139.22 129.326C139.076 129.205 139.153 129.224 138.997 129.236L138.995 129.237ZM37.6606 130.557C37.3466 131.125 36.9519 131.466 36.4464 131.852C39.0714 132.727 41.6007 133.812 44.1669 134.84L54.5142 138.906L71.7204 145.575C74.9114 146.811 78.141 147.98 81.2917 149.312L81.683 149.482C81.8695 149.406 81.8661 149.388 81.9383 149.206C82.1314 148.721 82.0441 148.078 82.1936 147.547C77.182 145.718 72.1923 143.832 67.2244 141.887L50.0467 135.372L43.0433 132.672C41.253 131.965 39.4761 131.204 37.6623 130.559L37.6606 130.557ZM140.256 131.599C137.655 132.344 135.105 133.297 132.541 134.163L119.246 138.592L95.6966 146.282C91.3047 147.718 86.8911 149.092 82.5295 150.62C82.3968 151.254 82.2675 151.887 82.1415 152.522C82.6722 152.392 83.1962 152.253 83.7202 152.097C97.7002 147.725 111.631 143.206 125.516 138.535L135.584 135.156C137.774 134.422 139.968 133.737 142.119 132.889C141.692 132.544 140.767 131.614 140.258 131.599H140.256ZM35.7191 132.586C34.8542 132.979 33.9943 133.219 33.0723 133.439C34.8105 134.244 36.6328 134.909 38.4063 135.638C43.0249 137.531 47.6619 139.373 52.3191 141.167C61.4386 144.779 70.5918 148.306 79.7751 151.749C80.2975 151.941 80.845 152.112 81.3522 152.339C81.4765 151.731 81.5823 151.134 81.6444 150.516C79.4426 149.74 77.2845 148.869 75.1062 148.037C71.1578 146.561 67.2227 145.046 63.3028 143.494L44.8034 136.258L38.2081 133.582C37.5179 133.297 36.7235 132.784 36.0147 132.608C35.914 132.583 35.8199 132.568 35.7175 132.585L35.7191 132.586ZM86.6459 138.836C85.8918 139.056 85.1428 139.244 84.3702 139.395C84.3887 139.936 84.2022 140.844 84.5969 141.222C84.8102 141.225 84.9815 141.202 85.1881 141.157C85.7793 141.019 86.8877 140.873 87.2522 140.313C87.363 140.142 87.363 139.959 87.311 139.769C87.2387 139.501 86.8457 139.035 86.6459 138.836ZM82.5345 139.134C82.2238 139.546 81.7754 139.978 81.8207 140.525C81.945 140.78 82.0945 140.893 82.3565 140.985C82.7361 141.118 83.1324 141.222 83.5204 141.33L83.8395 141.432C84.0931 141.027 83.8999 139.957 83.8999 139.459C83.4398 139.376 82.9712 139.311 82.5345 139.136V139.134Z" fill="#235735"/>
<path d="M65.8807 20.4375C66.6348 20.0546 67.3469 19.5827 68.096 19.1847C69.9921 18.177 71.9991 17.653 74.127 17.4212C74.9197 17.3288 75.7947 17.3792 76.5891 17.4279C73.6601 18.0443 70.8688 19.1292 68.0036 19.9807C67.3049 20.2041 66.613 20.3754 65.8807 20.4375Z" fill="#235735"/>
<path d="M87.0824 24.7387C85.5659 23.9896 83.6429 21.5393 82.3682 20.2813C81.4629 19.3878 80.5023 18.5498 79.5399 17.7184C79.9363 17.8091 80.3293 18.0023 80.7038 18.1635C83.5438 19.3778 85.937 21.8852 87.0824 24.7403V24.7387Z" fill="#235735"/>
<path d="M52.6213 31.863C52.9673 30.9662 53.6257 30.0643 54.2168 29.3085C56.7377 26.0822 59.9371 23.8452 63.4355 21.808C62.7906 22.73 61.1598 23.8905 60.2613 24.7353C58.4743 26.4131 56.7377 28.1346 54.9373 29.7989C54.1916 30.4892 53.456 31.2903 52.6213 31.863Z" fill="#235735"/>
<path d="M83.4733 35.138C82.6184 34.0782 81.6729 29.8846 81.824 28.4889C81.8341 28.3932 81.8391 28.3798 81.861 28.2756L81.9517 28.3042C82.0004 29.6713 82.2741 30.9158 82.6621 32.2241C82.9308 33.1327 83.4985 34.1941 83.4733 35.138Z" fill="#235735"/>
<path d="M43.1793 49.5227C43.5438 44.6153 46.0563 40.5442 49.4085 37.098C49.2523 37.6488 48.772 38.2954 48.4915 38.8043C47.3713 40.8398 46.2309 42.8938 45.2417 44.9982C44.5481 46.4745 43.9754 48.1103 43.1793 49.5227Z" fill="#235735"/>
<path d="M39.8321 67.5032C39.7582 66.1478 39.5264 64.8059 39.4727 63.4439C39.3283 59.8448 40.346 56.726 41.5166 53.3889C41.614 54.0388 40.9254 57.5439 40.8079 58.4138C40.5425 60.4947 40.3259 62.5823 40.1613 64.6733C40.0773 65.6255 40.084 66.6265 39.9161 67.5636L39.8321 67.5015V67.5032Z" fill="#235735"/>
<path d="M43.5924 81.6713C43.4816 81.5772 43.3808 81.4731 43.2834 81.3639C42.7191 80.7257 42.2489 79.9464 41.8491 79.1974C40.4518 76.5774 40.5123 74.2413 40.6651 71.361C41.0262 72.1167 41.4612 74.8408 41.7484 75.9207C42.0171 76.9301 42.3009 77.9529 42.6469 78.9388C42.9626 79.8373 43.3909 80.7425 43.5924 81.6729V81.6713Z" fill="#235735"/>
<path d="M60.5149 76.3826C60.5955 76.3053 60.6845 76.2465 60.7752 76.181L60.5149 76.3826Z" fill="#235735"/>
<path d="M57.9889 88.599C58.6657 88.0834 59.5357 87.6854 60.2847 87.2722C62.2833 86.1705 64.344 85.1611 66.3191 84.0208C67.7685 83.1844 68.9676 81.992 70.2995 80.9927C69.4429 82.4437 67.8155 83.7823 66.5089 84.8538C64.4985 86.5047 62.6595 87.8197 60.0731 88.3857C59.4047 88.5318 58.6724 88.6662 57.9889 88.599Z" fill="#235735"/>
<path d="M56.3497 88.5654C54.3915 88.6477 51.9982 88.7619 50.1206 88.1909C48.5771 87.7207 46.6004 86.3183 45.8312 84.884C46.9245 85.1175 48.4226 86.1336 49.5143 86.5988C51.7127 87.5359 54.0102 88.1221 56.3497 88.5671V88.5654Z" fill="#235735"/>
<path d="M91.8539 105.249C85.1276 105.594 68.1935 104.761 63.0459 100.129C62.3455 99.4988 61.7879 98.6423 61.7543 97.6766C61.7208 96.7378 62.2431 95.8292 62.8611 95.1574C67.1001 90.5506 82.076 89.5513 88.065 89.3061C90.7152 89.2288 93.3654 89.2557 96.014 89.385C98.6625 89.5143 101.303 89.7461 103.933 90.0803C105.585 90.2802 107.266 90.4397 108.896 90.7874C111.289 91.2996 114.174 92.094 116.082 93.666C116.9 94.3395 117.842 95.3791 117.918 96.4825C117.98 97.4045 117.305 98.3534 116.7 99C112.207 103.81 98.1939 105.061 91.8556 105.249H91.8539ZM107.527 90.7723C106.133 91.4508 104.596 91.8673 103.135 92.3812C100.923 93.1588 98.7263 93.9935 96.5195 94.7896C96.8621 95.1943 97.1644 95.5756 97.3844 96.0643C97.2836 96.4002 97.1913 96.7411 97.0821 97.0753C100.065 96.9359 103.048 96.8285 106.032 96.7546C109.855 96.6286 113.675 96.4825 117.496 96.3145C116.87 94.5813 115.457 93.5316 113.835 92.7742C112.523 92.1612 108.969 90.8714 107.525 90.7706L107.527 90.7723ZM90.0266 93.6727C88.0667 93.7617 84.612 94.1211 83.2315 95.6747C82.9712 95.9669 82.7999 96.3263 82.82 96.7243C82.8435 97.1845 83.1139 97.5641 83.4565 97.8546C85.0722 99.2251 87.798 99.4468 89.8117 99.477C91.7632 99.3729 95.0248 99.0202 96.4422 97.4851C96.7764 97.124 97.0065 96.6504 96.9662 96.1499C96.9293 95.6914 96.6656 95.3085 96.318 95.023C94.9761 93.923 91.7028 93.5871 90.0266 93.6727ZM62.4967 96.9729C62.4429 98.0158 62.5555 98.7968 63.2743 99.6181C65.2695 101.9 69.4531 102.809 72.3182 103.467C75.7125 102.394 79.1336 101.405 82.5211 100.313C83.5758 99.9741 84.6271 99.6265 85.6768 99.2721C85.3392 99.1579 84.9764 99.0538 84.6607 98.8875C84.0494 98.5667 83.4834 98.1082 82.7999 97.9571C81.9131 97.7606 80.9155 97.8076 80.0086 97.774C78.7406 97.7253 77.4726 97.6665 76.2046 97.601L67.6879 97.2114C65.9614 97.1274 64.2249 96.9914 62.4967 96.9712V96.9729Z" fill="#235735"/>
<path d="M90.0921 97.7589C89.5882 97.7488 88.8593 97.6447 88.4982 97.25C88.0616 96.773 88.4646 96.7025 88.4848 96.2591C88.3807 96.1667 88.29 96.0861 88.2094 95.9736C88.1271 95.8577 88.1724 95.7989 88.1943 95.6646C88.3991 95.5621 88.4898 95.5201 88.6074 95.3136C88.5721 95.1859 88.5537 95.0936 88.5419 94.9642C88.7585 94.6435 89.1616 94.4755 89.4925 94.2874C89.8704 94.3731 90.3087 94.4486 90.5304 94.7946C90.5438 94.934 90.5522 95.0868 90.5892 95.2212C90.6379 95.3992 90.737 95.4496 90.8864 95.5369C91.1149 95.6696 91.2794 95.7486 91.3634 96.0089L91.1535 96.1869C91.2442 96.5346 91.3466 96.8587 91.2526 97.2147C90.9721 97.6094 90.5388 97.6699 90.0921 97.7589Z" fill="#235735"/>
<path d="M79.4342 123.552C79.3553 123.603 79.2444 123.685 79.1504 123.714C78.4148 123.937 62.7553 118.104 60.446 117.318C59.2855 116.922 57.989 116.739 56.8755 116.242C59.037 116.263 62.4463 117.395 64.5574 117.982C66.8852 118.628 69.2314 119.226 71.5457 119.928C72.9733 120.361 74.3823 120.857 75.8082 121.298C76.8008 121.606 77.963 121.838 78.8917 122.281C79.1537 122.405 79.4174 122.58 79.5333 122.859C79.6341 123.102 79.5249 123.326 79.4359 123.551L79.4342 123.552Z" fill="#235735"/>
<path d="M79.6005 125.867C79.5551 125.887 79.5098 125.91 79.4644 125.93C79.2545 126.023 79.0563 126.053 78.8279 126.016C77.7211 125.838 76.1508 125.193 75.0424 124.849C70.6573 123.485 66.3964 121.866 62.1054 120.234C60.4578 119.607 58.7565 119.08 57.1324 118.401C58.0998 118.403 59.1965 118.776 60.1505 118.988C64.0217 119.851 67.7954 120.884 71.5961 122.021C72.8792 122.405 79.3267 124.395 79.6643 125.212C79.76 125.445 79.6811 125.647 79.6005 125.867Z" fill="#235735"/>
<path d="M79.6424 128.262C79.5635 128.292 79.4846 128.322 79.404 128.346C79.2091 128.404 78.9975 128.43 78.7943 128.401C77.8169 128.265 76.7302 127.77 75.7746 127.476C70.8269 125.956 66.0773 124.056 61.2455 122.212C59.8112 121.665 58.13 121.263 56.7982 120.523C56.8352 120.519 56.8738 120.516 56.9107 120.514C57.5355 120.484 58.5314 120.857 59.1629 121.008C62.1692 121.717 65.1536 122.509 68.1179 123.384C71.0805 124.259 74.0162 125.217 76.9267 126.255C77.58 126.488 79.1319 126.858 79.5736 127.38C79.7936 127.642 79.7079 127.961 79.6424 128.26V128.262Z" fill="#235735"/>
<path d="M88.5218 124.711C88.4529 124.631 88.3538 124.531 88.3068 124.432C88.2967 124.411 88.2883 124.387 88.2799 124.364C88.2732 124.34 88.2665 124.316 88.2615 124.293C88.2564 124.269 88.2531 124.244 88.2514 124.221C88.2497 124.196 88.2497 124.172 88.2514 124.147C88.2514 124.122 88.2547 124.098 88.2598 124.075C88.2648 124.051 88.2699 124.026 88.2766 124.002C88.2833 123.979 88.2917 123.955 88.3018 123.934C88.3118 123.912 88.3236 123.89 88.3354 123.868C88.4563 123.663 88.6998 123.559 88.9131 123.483C90.2668 122.991 91.8035 122.771 93.2109 122.456C94.9559 122.063 96.7159 121.56 98.4861 121.298L98.5533 121.339C98.5247 121.369 98.5012 121.408 98.466 121.431C98.0041 121.727 97.1056 121.891 96.5715 122.081C94.1615 122.934 91.7716 123.947 89.3078 124.631C89.034 124.706 88.8056 124.736 88.5218 124.715V124.711Z" fill="#235735"/>
<path d="M88.5822 127.067C88.4344 126.916 88.2816 126.733 88.2463 126.515C88.2128 126.305 88.2447 126.142 88.3807 125.976C88.6057 125.702 89.0861 125.559 89.4169 125.45C91.4978 124.762 93.7483 124.367 95.8846 123.853C97.5825 123.445 99.3242 122.862 101.057 122.647H101.098C100.827 122.929 98.953 123.413 98.4911 123.584C96.2037 124.432 93.9498 125.353 91.6456 126.159C90.6732 126.498 89.6067 126.936 88.5839 127.066L88.5822 127.067Z" fill="#235735"/>
<path d="M79.6844 130.653C79.5668 130.722 79.4375 130.798 79.3048 130.835C78.7942 130.979 76.3909 130.022 75.7292 129.805C71.1728 128.305 66.6903 126.769 62.2279 125C60.4577 124.298 58.5129 123.633 56.8569 122.703C59.7356 123.277 78.6868 128.549 79.6525 129.872C79.8355 130.124 79.7599 130.384 79.686 130.653H79.6844Z" fill="#235735"/>
<path d="M88.6545 129.311C88.5101 129.187 88.3707 129.074 88.3018 128.89C88.2313 128.705 88.233 128.498 88.3287 128.322C88.4328 128.131 88.5957 128.015 88.7905 127.932C89.6034 127.583 90.6128 127.464 91.4727 127.232C94.6402 126.379 97.7573 125.598 100.98 124.983L101.165 124.966L101.173 125.02C99.8516 125.558 98.4358 125.915 97.0905 126.404C95.2078 127.091 93.3486 127.822 91.4542 128.483C90.549 128.799 89.6118 129.207 88.6545 129.311Z" fill="#235735"/>
<path d="M79.6877 133.026C79.5886 133.073 79.5953 133.072 79.4711 133.114C79.2527 133.186 78.9823 133.248 78.7523 133.203C77.7009 132.994 76.5437 132.452 75.5125 132.116C70.9024 130.615 66.3796 128.89 61.8601 127.136C60.3838 126.564 57.9587 125.816 56.6621 125.15C57.5002 125.267 58.3315 125.427 59.1528 125.632C62.0633 126.329 64.9503 127.104 67.8172 127.964C70.6841 128.823 73.524 129.761 76.3372 130.779C77.1248 131.065 79.3703 131.639 79.7096 132.346C79.8238 132.585 79.7549 132.793 79.6877 133.03V133.026Z" fill="#235735"/>
<path d="M88.547 131.622C88.4664 131.506 88.3774 131.384 88.3219 131.253C88.243 131.068 88.2397 130.845 88.3438 130.67C88.4697 130.46 88.6679 130.341 88.8863 130.243C90.7202 129.415 92.8801 129.048 94.8282 128.564L101.961 126.737L102.038 126.745L102.01 126.837C101.43 127.133 100.794 127.296 100.191 127.534C97.4264 128.624 94.6939 129.674 91.8841 130.643C90.8613 130.996 89.637 131.585 88.5487 131.619L88.547 131.622Z" fill="#235735"/>
<path d="M79.6626 135.498C79.5198 135.569 79.3838 135.628 79.2293 135.671C79.0932 135.708 78.9639 135.703 78.8279 135.665C77.6102 135.315 76.3977 134.785 75.2069 134.35C72.0915 133.209 69.0113 132.012 65.9161 130.819C63.8301 130.035 61.751 129.231 59.6818 128.406C58.6574 128.001 57.4834 127.64 56.553 127.052C56.6386 127.057 56.6705 127.056 56.7646 127.074C57.6698 127.259 58.5969 127.586 59.4887 127.837C62.4009 128.653 65.251 129.605 68.1363 130.502C71.6968 131.61 75.4975 132.475 78.8967 134.034C79.1722 134.16 79.5316 134.351 79.6794 134.632C79.849 134.958 79.7852 135.178 79.6642 135.498H79.6626Z" fill="#235735"/>
<path d="M88.7419 133.92C88.6193 133.821 88.5067 133.732 88.416 133.599C88.2766 133.396 88.2867 133.162 88.3321 132.934C88.4446 132.757 88.5269 132.638 88.7251 132.548C89.8705 132.019 91.3115 131.772 92.5408 131.437C95.7083 130.581 98.8993 129.736 102.099 129.011L102.364 129.007C101.948 129.331 101.091 129.521 100.58 129.726C98.0663 130.74 95.5656 131.731 93.0111 132.64C91.649 133.125 90.1761 133.716 88.7419 133.918V133.92Z" fill="#235735"/>
<path d="M88.6242 136.158C88.5436 136.059 88.468 135.965 88.4193 135.846C88.3186 135.609 88.285 135.341 88.416 135.105C88.5537 134.86 88.7939 134.775 89.0391 134.677C91.3584 133.76 93.9331 133.347 96.3532 132.769C98.5617 132.244 100.743 131.595 102.964 131.12L102.98 131.18C102.366 131.463 101.702 131.631 101.067 131.869C99.1226 132.6 97.1912 133.345 95.233 134.047C93.3033 134.739 91.3248 135.616 89.3548 136.163C89.0945 136.236 88.8829 136.212 88.6226 136.155L88.6242 136.158Z" fill="#235735"/>
</svg>
